<svg xmlns="http://www.w3.org/2000/svg" viewBox="0 0 1200 675">
<defs>
<linearGradient id="bg" x1="0" y1="0" x2="1" y2="1"><stop offset="0%" stop-color="#0f172a"/><stop offset="100%" stop-color="#111827"/></linearGradient>
<linearGradient id="g" x1="0" y1="0" x2="1" y2="1"><stop offset="0%" stop-color="#00E676"/><stop offset="100%" stop-color="#2979FF"/></linearGradient>
</defs>
<rect width="1200" height="675" fill="url(#bg)"/>
<rect x="280" y="343" width="6" height="6" fill="#00E676" opacity="0.25"/><rect x="916" y="156" width="6" height="6" fill="#00E676" opacity="0.25"/><rect x="560" y="569" width="6" height="6" fill="#00E676" opacity="0.25"/><rect x="886" y="160" width="6" height="6" fill="#00E676" opacity="0.25"/><rect x="337" y="415" width="6" height="6" fill="#00E676" opacity="0.25"/><rect x="247" y="128" width="6" height="6" fill="#00E676" opacity="0.25"/><rect x="877" y="353" width="6" height="6" fill="#00E676" opacity="0.25"/><rect x="458" y="119" width="6" height="6" fill="#00E676" opacity="0.25"/><rect x="106" y="531" width="6" height="6" fill="#00E676" opacity="0.25"/><rect x="396" y="446" width="6" height="6" fill="#00E676" opacity="0.25"/><rect x="352" y="176" width="6" height="6" fill="#00E676" opacity="0.25"/><rect x="165" y="117" width="6" height="6" fill="#00E676" opacity="0.25"/><rect x="601" y="2" width="6" height="6" fill="#00E676" opacity="0.25"/><rect x="645" y="411" width="6" height="6" fill="#00E676" opacity="0.25"/><rect x="936" y="543" width="6" height="6" fill="#00E676" opacity="0.25"/><rect x="111" y="168" width="6" height="6" fill="#00E676" opacity="0.25"/><rect x="240" y="466" width="6" height="6" fill="#00E676" opacity="0.25"/><rect x="1141" y="341" width="6" height="6" fill="#00E676" opacity="0.25"/><rect x="25" y="74" width="6" height="6" fill="#00E676" opacity="0.25"/><rect x="1175" y="111" width="6" height="6" fill="#00E676" opacity="0.25"/><rect x="191" y="340" width="6" height="6" fill="#00E676" opacity="0.25"/><rect x="526" y="87" width="6" height="6" fill="#00E676" opacity="0.25"/><rect x="616" y="45" width="6" height="6" fill="#00E676" opacity="0.25"/><rect x="55" y="199" width="6" height="6" fill="#00E676" opacity="0.25"/><rect x="449" y="525" width="6" height="6" fill="#00E676" opacity="0.25"/><rect x="1037" y="12" width="6" height="6" fill="#00E676" opacity="0.25"/><rect x="320" y="24" width="6" height="6" fill="#00E676" opacity="0.25"/><rect x="1079" y="138" width="6" height="6" fill="#00E676" opacity="0.25"/><rect x="639" y="129" width="6" height="6" fill="#00E676" opacity="0.25"/><rect x="858" y="281" width="6" height="6" fill="#00E676" opacity="0.25"/><rect x="223" y="397" width="6" height="6" fill="#00E676" opacity="0.25"/><rect x="202" y="223" width="6" height="6" fill="#00E676" opacity="0.25"/><rect x="491" y="202" width="6" height="6" fill="#00E676" opacity="0.25"/><rect x="463" y="99" width="6" height="6" fill="#00E676" opacity="0.25"/><rect x="617" y="128" width="6" height="6" fill="#00E676" opacity="0.25"/><rect x="1136" y="399" width="6" height="6" fill="#00E676" opacity="0.25"/><rect x="285" y="84" width="6" height="6" fill="#00E676" opacity="0.25"/><rect x="918" y="499" width="6" height="6" fill="#00E676" opacity="0.25"/><rect x="6" y="183" width="6" height="6" fill="#00E676" opacity="0.25"/><rect x="386" y="649" width="6" height="6" fill="#00E676" opacity="0.25"/><rect x="637" y="414" width="6" height="6" fill="#00E676" opacity="0.25"/><rect x="194" y="303" width="6" height="6" fill="#00E676" opacity="0.25"/><rect x="423" y="373" width="6" height="6" fill="#00E676" opacity="0.25"/><rect x="610" y="147" width="6" height="6" fill="#00E676" opacity="0.25"/><rect x="202" y="4" width="6" height="6" fill="#00E676" opacity="0.25"/><rect x="565" y="63" width="6" height="6" fill="#00E676" opacity="0.25"/><rect x="793" y="382" width="6" height="6" fill="#00E676" opacity="0.25"/><rect x="578" y="405" width="6" height="6" fill="#00E676" opacity="0.25"/><rect x="947" y="101" width="6" height="6" fill="#00E676" opacity="0.25"/><rect x="136" y="591" width="6" height="6" fill="#00E676" opacity="0.25"/><rect x="961" y="216" width="6" height="6" fill="#00E676" opacity="0.25"/><rect x="20" y="541" width="6" height="6" fill="#00E676" opacity="0.25"/><rect x="143" y="560" width="6" height="6" fill="#00E676" opacity="0.25"/><rect x="697" y="15" width="6" height="6" fill="#00E676" opacity="0.25"/><rect x="366" y="284" width="6" height="6" fill="#00E676" opacity="0.25"/><rect x="602" y="623" width="6" height="6" fill="#00E676" opacity="0.25"/><rect x="204" y="2" width="6" height="6" fill="#00E676" opacity="0.25"/><rect x="84" y="216" width="6" height="6" fill="#00E676" opacity="0.25"/><rect x="423" y="633" width="6" height="6" fill="#00E676" opacity="0.25"/><rect x="831" y="615" width="6" height="6" fill="#00E676" opacity="0.25"/><rect x="160" y="596" width="6" height="6" fill="#00E676" opacity="0.25"/><rect x="736" y="289" width="6" height="6" fill="#00E676" opacity="0.25"/><rect x="906" y="51" width="6" height="6" fill="#00E676" opacity="0.25"/><rect x="282" y="637" width="6" height="6" fill="#00E676" opacity="0.25"/><rect x="769" y="575" width="6" height="6" fill="#00E676" opacity="0.25"/><rect x="813" y="403" width="6" height="6" fill="#00E676" opacity="0.25"/><rect x="520" y="3" width="6" height="6" fill="#00E676" opacity="0.25"/><rect x="939" y="93" width="6" height="6" fill="#00E676" opacity="0.25"/><rect x="1007" y="326" width="6" height="6" fill="#00E676" opacity="0.25"/><rect x="471" y="205" width="6" height="6" fill="#00E676" opacity="0.25"/><rect x="599" y="461" width="6" height="6" fill="#00E676" opacity="0.25"/><rect x="689" y="389" width="6" height="6" fill="#00E676" opacity="0.25"/><rect x="423" y="638" width="6" height="6" fill="#00E676" opacity="0.25"/><rect x="107" y="356" width="6" height="6" fill="#00E676" opacity="0.25"/><rect x="276" y="93" width="6" height="6" fill="#00E676" opacity="0.25"/><rect x="752" y="20" width="6" height="6" fill="#00E676" opacity="0.25"/><rect x="241" y="488" width="6" height="6" fill="#00E676" opacity="0.25"/><rect x="490" y="554" width="6" height="6" fill="#00E676" opacity="0.25"/><rect x="290" y="303" width="6" height="6" fill="#00E676" opacity="0.25"/><rect x="13" y="143" width="6" height="6" fill="#00E676" opacity="0.25"/>
<g stroke="url(#g)" stroke-width="3"><line x1="944" y1="510" x2="623" y2="287" stroke="#2979FF" stroke-opacity="0.35" /><line x1="203" y1="185" x2="706" y2="204" stroke="#2979FF" stroke-opacity="0.35" /><line x1="155" y1="183" x2="216" y2="122" stroke="#2979FF" stroke-opacity="0.35" /><line x1="314" y1="209" x2="830" y2="471" stroke="#2979FF" stroke-opacity="0.35" /><line x1="410" y1="236" x2="826" y2="211" stroke="#2979FF" stroke-opacity="0.35" /><line x1="287" y1="399" x2="240" y2="543" stroke="#2979FF" stroke-opacity="0.35" /><line x1="143" y1="216" x2="842" y2="199" stroke="#2979FF" stroke-opacity="0.35" /><line x1="999" y1="510" x2="344" y2="373" stroke="#2979FF" stroke-opacity="0.35" /><line x1="363" y1="108" x2="133" y2="489" stroke="#2979FF" stroke-opacity="0.35" /><line x1="780" y1="396" x2="427" y2="223" stroke="#2979FF" stroke-opacity="0.35" /></g>
<rect x="120" y="120" width="960" height="435" rx="24" fill="none" stroke="url(#g)" stroke-width="4" opacity="0.8"/>
<circle cx="600" cy="337" r="120" fill="url(#g)" opacity="0.15"/>
<circle cx="860" cy="431" r="10" fill="#00E676" opacity="0.8"/><circle cx="386" cy="425" r="18" fill="#00E676" opacity="0.8"/><circle cx="989" cy="543" r="9" fill="#00E676" opacity="0.8"/><circle cx="1013" cy="247" r="17" fill="#00E676" opacity="0.8"/><circle cx="293" cy="93" r="14" fill="#00E676" opacity="0.8"/><circle cx="536" cy="118" r="9" fill="#00E676" opacity="0.8"/><circle cx="248" cy="243" r="15" fill="#00E676" opacity="0.8"/><circle cx="714" cy="310" r="14" fill="#00E676" opacity="0.8"/><circle cx="333" cy="182" r="13" fill="#00E676" opacity="0.8"/><circle cx="760" cy="545" r="18" fill="#00E676" opacity="0.8"/><circle cx="463" cy="248" r="14" fill="#00E676" opacity="0.8"/><circle cx="214" cy="401" r="16" fill="#00E676" opacity="0.8"/>
<path d="M220 339 C420 180,780 480,980 319" fill="none" stroke="url(#g)" stroke-width="8" opacity="0.8"/>
</svg>