<svg xmlns="http://www.w3.org/2000/svg" viewBox="0 0 1200 675">
<defs>
<linearGradient id="bg" x1="0" y1="0" x2="1" y2="1"><stop offset="0%" stop-color="#0f172a"/><stop offset="100%" stop-color="#111827"/></linearGradient>
<linearGradient id="g" x1="0" y1="0" x2="1" y2="1"><stop offset="0%" stop-color="#00E676"/><stop offset="100%" stop-color="#2979FF"/></linearGradient>
</defs>
<rect width="1200" height="675" fill="url(#bg)"/>
<rect x="134" y="168" width="6" height="6" fill="#00E676" opacity="0.25"/><rect x="987" y="13" width="6" height="6" fill="#00E676" opacity="0.25"/><rect x="911" y="503" width="6" height="6" fill="#00E676" opacity="0.25"/><rect x="28" y="486" width="6" height="6" fill="#00E676" opacity="0.25"/><rect x="251" y="465" width="6" height="6" fill="#00E676" opacity="0.25"/><rect x="160" y="511" width="6" height="6" fill="#00E676" opacity="0.25"/><rect x="46" y="147" width="6" height="6" fill="#00E676" opacity="0.25"/><rect x="475" y="415" width="6" height="6" fill="#00E676" opacity="0.25"/><rect x="756" y="33" width="6" height="6" fill="#00E676" opacity="0.25"/><rect x="1104" y="44" width="6" height="6" fill="#00E676" opacity="0.25"/><rect x="819" y="618" width="6" height="6" fill="#00E676" opacity="0.25"/><rect x="654" y="488" width="6" height="6" fill="#00E676" opacity="0.25"/><rect x="1046" y="72" width="6" height="6" fill="#00E676" opacity="0.25"/><rect x="466" y="327" width="6" height="6" fill="#00E676" opacity="0.25"/><rect x="206" y="95" width="6" height="6" fill="#00E676" opacity="0.25"/><rect x="1109" y="124" width="6" height="6" fill="#00E676" opacity="0.25"/><rect x="497" y="9" width="6" height="6" fill="#00E676" opacity="0.25"/><rect x="807" y="640" width="6" height="6" fill="#00E676" opacity="0.25"/><rect x="95" y="116" width="6" height="6" fill="#00E676" opacity="0.25"/><rect x="98" y="402" width="6" height="6" fill="#00E676" opacity="0.25"/><rect x="313" y="653" width="6" height="6" fill="#00E676" opacity="0.25"/><rect x="523" y="245" width="6" height="6" fill="#00E676" opacity="0.25"/><rect x="364" y="596" width="6" height="6" fill="#00E676" opacity="0.25"/><rect x="22" y="244" width="6" height="6" fill="#00E676" opacity="0.25"/><rect x="1076" y="250" width="6" height="6" fill="#00E676" opacity="0.25"/><rect x="237" y="106" width="6" height="6" fill="#00E676" opacity="0.25"/><rect x="301" y="274" width="6" height="6" fill="#00E676" opacity="0.25"/><rect x="795" y="416" width="6" height="6" fill="#00E676" opacity="0.25"/><rect x="79" y="414" width="6" height="6" fill="#00E676" opacity="0.25"/><rect x="951" y="477" width="6" height="6" fill="#00E676" opacity="0.25"/><rect x="943" y="266" width="6" height="6" fill="#00E676" opacity="0.25"/><rect x="79" y="60" width="6" height="6" fill="#00E676" opacity="0.25"/><rect x="62" y="202" width="6" height="6" fill="#00E676" opacity="0.25"/><rect x="875" y="261" width="6" height="6" fill="#00E676" opacity="0.25"/><rect x="1029" y="393" width="6" height="6" fill="#00E676" opacity="0.25"/><rect x="211" y="221" width="6" height="6" fill="#00E676" opacity="0.25"/><rect x="232" y="425" width="6" height="6" fill="#00E676" opacity="0.25"/><rect x="221" y="290" width="6" height="6" fill="#00E676" opacity="0.25"/><rect x="237" y="466" width="6" height="6" fill="#00E676" opacity="0.25"/><rect x="888" y="144" width="6" height="6" fill="#00E676" opacity="0.25"/><rect x="818" y="243" width="6" height="6" fill="#00E676" opacity="0.25"/><rect x="257" y="134" width="6" height="6" fill="#00E676" opacity="0.25"/><rect x="826" y="443" width="6" height="6" fill="#00E676" opacity="0.25"/><rect x="1026" y="230" width="6" height="6" fill="#00E676" opacity="0.25"/><rect x="810" y="189" width="6" height="6" fill="#00E676" opacity="0.25"/><rect x="742" y="507" width="6" height="6" fill="#00E676" opacity="0.25"/><rect x="356" y="417" width="6" height="6" fill="#00E676" opacity="0.25"/><rect x="427" y="436" width="6" height="6" fill="#00E676" opacity="0.25"/><rect x="44" y="499" width="6" height="6" fill="#00E676" opacity="0.25"/><rect x="623" y="586" width="6" height="6" fill="#00E676" opacity="0.25"/><rect x="604" y="126" width="6" height="6" fill="#00E676" opacity="0.25"/><rect x="156" y="312" width="6" height="6" fill="#00E676" opacity="0.25"/><rect x="1021" y="247" width="6" height="6" fill="#00E676" opacity="0.25"/><rect x="1094" y="483" width="6" height="6" fill="#00E676" opacity="0.25"/><rect x="428" y="603" width="6" height="6" fill="#00E676" opacity="0.25"/><rect x="905" y="514" width="6" height="6" fill="#00E676" opacity="0.25"/><rect x="273" y="502" width="6" height="6" fill="#00E676" opacity="0.25"/><rect x="1133" y="81" width="6" height="6" fill="#00E676" opacity="0.25"/><rect x="219" y="320" width="6" height="6" fill="#00E676" opacity="0.25"/><rect x="119" y="473" width="6" height="6" fill="#00E676" opacity="0.25"/><rect x="164" y="508" width="6" height="6" fill="#00E676" opacity="0.25"/><rect x="107" y="525" width="6" height="6" fill="#00E676" opacity="0.25"/><rect x="685" y="544" width="6" height="6" fill="#00E676" opacity="0.25"/><rect x="351" y="102" width="6" height="6" fill="#00E676" opacity="0.25"/><rect x="746" y="412" width="6" height="6" fill="#00E676" opacity="0.25"/><rect x="579" y="400" width="6" height="6" fill="#00E676" opacity="0.25"/><rect x="132" y="228" width="6" height="6" fill="#00E676" opacity="0.25"/><rect x="390" y="465" width="6" height="6" fill="#00E676" opacity="0.25"/><rect x="429" y="13" width="6" height="6" fill="#00E676" opacity="0.25"/><rect x="0" y="226" width="6" height="6" fill="#00E676" opacity="0.25"/><rect x="682" y="404" width="6" height="6" fill="#00E676" opacity="0.25"/><rect x="416" y="56" width="6" height="6" fill="#00E676" opacity="0.25"/><rect x="551" y="655" width="6" height="6" fill="#00E676" opacity="0.25"/><rect x="46" y="395" width="6" height="6" fill="#00E676" opacity="0.25"/><rect x="118" y="150" width="6" height="6" fill="#00E676" opacity="0.25"/><rect x="1096" y="227" width="6" height="6" fill="#00E676" opacity="0.25"/><rect x="423" y="515" width="6" height="6" fill="#00E676" opacity="0.25"/><rect x="1104" y="653" width="6" height="6" fill="#00E676" opacity="0.25"/><rect x="548" y="526" width="6" height="6" fill="#00E676" opacity="0.25"/><rect x="57" y="629" width="6" height="6" fill="#00E676" opacity="0.25"/>
<g stroke="url(#g)" stroke-width="3"><line x1="595" y1="313" x2="733" y2="400" stroke="#2979FF" stroke-opacity="0.35" /><line x1="840" y1="231" x2="349" y2="480" stroke="#2979FF" stroke-opacity="0.35" /><line x1="437" y1="265" x2="384" y2="295" stroke="#2979FF" stroke-opacity="0.35" /><line x1="926" y1="124" x2="476" y2="333" stroke="#2979FF" stroke-opacity="0.35" /><line x1="553" y1="344" x2="778" y2="168" stroke="#2979FF" stroke-opacity="0.35" /><line x1="696" y1="230" x2="712" y2="102" stroke="#2979FF" stroke-opacity="0.35" /><line x1="409" y1="578" x2="205" y2="506" stroke="#2979FF" stroke-opacity="0.35" /><line x1="929" y1="83" x2="655" y2="271" stroke="#2979FF" stroke-opacity="0.35" /><line x1="360" y1="330" x2="278" y2="238" stroke="#2979FF" stroke-opacity="0.35" /><line x1="431" y1="242" x2="591" y2="312" stroke="#2979FF" stroke-opacity="0.35" /></g>
<rect x="120" y="120" width="960" height="435" rx="24" fill="none" stroke="url(#g)" stroke-width="4" opacity="0.8"/>
<circle cx="600" cy="337" r="120" fill="url(#g)" opacity="0.15"/>
<circle cx="490" cy="320" r="15" fill="#00E676" opacity="0.8"/><circle cx="411" cy="293" r="11" fill="#00E676" opacity="0.8"/><circle cx="577" cy="82" r="14" fill="#00E676" opacity="0.8"/><circle cx="994" cy="416" r="12" fill="#00E676" opacity="0.8"/><circle cx="363" cy="405" r="11" fill="#00E676" opacity="0.8"/><circle cx="130" cy="231" r="12" fill="#00E676" opacity="0.8"/><circle cx="954" cy="251" r="18" fill="#00E676" opacity="0.8"/><circle cx="265" cy="567" r="17" fill="#00E676" opacity="0.8"/><circle cx="437" cy="91" r="11" fill="#00E676" opacity="0.8"/><circle cx="737" cy="209" r="8" fill="#00E676" opacity="0.8"/><circle cx="277" cy="493" r="17" fill="#00E676" opacity="0.8"/><circle cx="803" cy="403" r="8" fill="#00E676" opacity="0.8"/>
<path d="M220 335 C420 180,780 480,980 315" fill="none" stroke="url(#g)" stroke-width="8" opacity="0.8"/>
</svg>