<svg xmlns="http://www.w3.org/2000/svg" viewBox="0 0 1200 675">
<defs>
<linearGradient id="bg" x1="0" y1="0" x2="1" y2="1"><stop offset="0%" stop-color="#0f172a"/><stop offset="100%" stop-color="#111827"/></linearGradient>
<linearGradient id="g" x1="0" y1="0" x2="1" y2="1"><stop offset="0%" stop-color="#6C63FF"/><stop offset="100%" stop-color="#00E5FF"/></linearGradient>
</defs>
<rect width="1200" height="675" fill="url(#bg)"/>
<rect x="590" y="241" width="6" height="6" fill="#6C63FF" opacity="0.25"/><rect x="203" y="406" width="6" height="6" fill="#6C63FF" opacity="0.25"/><rect x="967" y="525" width="6" height="6" fill="#6C63FF" opacity="0.25"/><rect x="180" y="427" width="6" height="6" fill="#6C63FF" opacity="0.25"/><rect x="69" y="16" width="6" height="6" fill="#6C63FF" opacity="0.25"/><rect x="856" y="4" width="6" height="6" fill="#6C63FF" opacity="0.25"/><rect x="1180" y="604" width="6" height="6" fill="#6C63FF" opacity="0.25"/><rect x="775" y="129" width="6" height="6" fill="#6C63FF" opacity="0.25"/><rect x="1137" y="638" width="6" height="6" fill="#6C63FF" opacity="0.25"/><rect x="452" y="120" width="6" height="6" fill="#6C63FF" opacity="0.25"/><rect x="1109" y="451" width="6" height="6" fill="#6C63FF" opacity="0.25"/><rect x="415" y="529" width="6" height="6" fill="#6C63FF" opacity="0.25"/><rect x="464" y="247" width="6" height="6" fill="#6C63FF" opacity="0.25"/><rect x="268" y="555" width="6" height="6" fill="#6C63FF" opacity="0.25"/><rect x="183" y="631" width="6" height="6" fill="#6C63FF" opacity="0.25"/><rect x="1001" y="338" width="6" height="6" fill="#6C63FF" opacity="0.25"/><rect x="1042" y="287" width="6" height="6" fill="#6C63FF" opacity="0.25"/><rect x="445" y="513" width="6" height="6" fill="#6C63FF" opacity="0.25"/><rect x="387" y="597" width="6" height="6" fill="#6C63FF" opacity="0.25"/><rect x="291" y="183" width="6" height="6" fill="#6C63FF" opacity="0.25"/><rect x="351" y="370" width="6" height="6" fill="#6C63FF" opacity="0.25"/><rect x="658" y="292" width="6" height="6" fill="#6C63FF" opacity="0.25"/><rect x="366" y="40" width="6" height="6" fill="#6C63FF" opacity="0.25"/><rect x="248" y="216" width="6" height="6" fill="#6C63FF" opacity="0.25"/><rect x="1157" y="64" width="6" height="6" fill="#6C63FF" opacity="0.25"/><rect x="455" y="49" width="6" height="6" fill="#6C63FF" opacity="0.25"/><rect x="211" y="118" width="6" height="6" fill="#6C63FF" opacity="0.25"/><rect x="218" y="470" width="6" height="6" fill="#6C63FF" opacity="0.25"/><rect x="1136" y="464" width="6" height="6" fill="#6C63FF" opacity="0.25"/><rect x="729" y="272" width="6" height="6" fill="#6C63FF" opacity="0.25"/><rect x="417" y="128" width="6" height="6" fill="#6C63FF" opacity="0.25"/><rect x="648" y="188" width="6" height="6" fill="#6C63FF" opacity="0.25"/><rect x="605" y="544" width="6" height="6" fill="#6C63FF" opacity="0.25"/><rect x="137" y="88" width="6" height="6" fill="#6C63FF" opacity="0.25"/><rect x="947" y="68" width="6" height="6" fill="#6C63FF" opacity="0.25"/><rect x="592" y="27" width="6" height="6" fill="#6C63FF" opacity="0.25"/><rect x="1099" y="98" width="6" height="6" fill="#6C63FF" opacity="0.25"/><rect x="382" y="212" width="6" height="6" fill="#6C63FF" opacity="0.25"/><rect x="779" y="153" width="6" height="6" fill="#6C63FF" opacity="0.25"/><rect x="1021" y="128" width="6" height="6" fill="#6C63FF" opacity="0.25"/><rect x="697" y="149" width="6" height="6" fill="#6C63FF" opacity="0.25"/><rect x="434" y="454" width="6" height="6" fill="#6C63FF" opacity="0.25"/><rect x="413" y="336" width="6" height="6" fill="#6C63FF" opacity="0.25"/><rect x="695" y="587" width="6" height="6" fill="#6C63FF" opacity="0.25"/><rect x="916" y="381" width="6" height="6" fill="#6C63FF" opacity="0.25"/><rect x="114" y="490" width="6" height="6" fill="#6C63FF" opacity="0.25"/><rect x="484" y="472" width="6" height="6" fill="#6C63FF" opacity="0.25"/><rect x="696" y="18" width="6" height="6" fill="#6C63FF" opacity="0.25"/><rect x="793" y="537" width="6" height="6" fill="#6C63FF" opacity="0.25"/><rect x="1169" y="78" width="6" height="6" fill="#6C63FF" opacity="0.25"/><rect x="568" y="222" width="6" height="6" fill="#6C63FF" opacity="0.25"/><rect x="5" y="532" width="6" height="6" fill="#6C63FF" opacity="0.25"/><rect x="1033" y="362" width="6" height="6" fill="#6C63FF" opacity="0.25"/><rect x="59" y="376" width="6" height="6" fill="#6C63FF" opacity="0.25"/><rect x="845" y="232" width="6" height="6" fill="#6C63FF" opacity="0.25"/><rect x="180" y="577" width="6" height="6" fill="#6C63FF" opacity="0.25"/><rect x="980" y="630" width="6" height="6" fill="#6C63FF" opacity="0.25"/><rect x="122" y="137" width="6" height="6" fill="#6C63FF" opacity="0.25"/><rect x="1062" y="41" width="6" height="6" fill="#6C63FF" opacity="0.25"/><rect x="554" y="287" width="6" height="6" fill="#6C63FF" opacity="0.25"/><rect x="1154" y="87" width="6" height="6" fill="#6C63FF" opacity="0.25"/><rect x="907" y="577" width="6" height="6" fill="#6C63FF" opacity="0.25"/><rect x="122" y="127" width="6" height="6" fill="#6C63FF" opacity="0.25"/><rect x="266" y="328" width="6" height="6" fill="#6C63FF" opacity="0.25"/><rect x="505" y="314" width="6" height="6" fill="#6C63FF" opacity="0.25"/><rect x="663" y="108" width="6" height="6" fill="#6C63FF" opacity="0.25"/><rect x="615" y="288" width="6" height="6" fill="#6C63FF" opacity="0.25"/><rect x="1051" y="493" width="6" height="6" fill="#6C63FF" opacity="0.25"/><rect x="246" y="151" width="6" height="6" fill="#6C63FF" opacity="0.25"/><rect x="73" y="78" width="6" height="6" fill="#6C63FF" opacity="0.25"/><rect x="705" y="207" width="6" height="6" fill="#6C63FF" opacity="0.25"/><rect x="1089" y="636" width="6" height="6" fill="#6C63FF" opacity="0.25"/><rect x="470" y="655" width="6" height="6" fill="#6C63FF" opacity="0.25"/><rect x="346" y="277" width="6" height="6" fill="#6C63FF" opacity="0.25"/><rect x="775" y="1" width="6" height="6" fill="#6C63FF" opacity="0.25"/><rect x="1054" y="16" width="6" height="6" fill="#6C63FF" opacity="0.25"/><rect x="38" y="610" width="6" height="6" fill="#6C63FF" opacity="0.25"/><rect x="599" y="493" width="6" height="6" fill="#6C63FF" opacity="0.25"/><rect x="423" y="380" width="6" height="6" fill="#6C63FF" opacity="0.25"/><rect x="329" y="468" width="6" height="6" fill="#6C63FF" opacity="0.25"/>
<g stroke="url(#g)" stroke-width="3"><line x1="853" y1="114" x2="591" y2="300" stroke="#00E5FF" stroke-opacity="0.35" /><line x1="383" y1="375" x2="448" y2="369" stroke="#00E5FF" stroke-opacity="0.35" /><line x1="120" y1="450" x2="845" y2="522" stroke="#00E5FF" stroke-opacity="0.35" /><line x1="166" y1="413" x2="312" y2="549" stroke="#00E5FF" stroke-opacity="0.35" /><line x1="754" y1="540" x2="754" y2="326" stroke="#00E5FF" stroke-opacity="0.35" /><line x1="753" y1="465" x2="768" y2="275" stroke="#00E5FF" stroke-opacity="0.35" /><line x1="940" y1="240" x2="948" y2="575" stroke="#00E5FF" stroke-opacity="0.35" /><line x1="409" y1="278" x2="788" y2="259" stroke="#00E5FF" stroke-opacity="0.35" /><line x1="610" y1="149" x2="663" y2="301" stroke="#00E5FF" stroke-opacity="0.35" /><line x1="192" y1="168" x2="424" y2="558" stroke="#00E5FF" stroke-opacity="0.35" /></g>
<rect x="120" y="120" width="960" height="435" rx="24" fill="none" stroke="url(#g)" stroke-width="4" opacity="0.8"/>
<circle cx="600" cy="337" r="120" fill="url(#g)" opacity="0.15"/>
<circle cx="334" cy="212" r="14" fill="#6C63FF" opacity="0.8"/><circle cx="146" cy="179" r="11" fill="#6C63FF" opacity="0.8"/><circle cx="525" cy="453" r="17" fill="#6C63FF" opacity="0.8"/><circle cx="125" cy="410" r="12" fill="#6C63FF" opacity="0.8"/><circle cx="812" cy="262" r="10" fill="#6C63FF" opacity="0.8"/><circle cx="954" cy="93" r="12" fill="#6C63FF" opacity="0.8"/><circle cx="810" cy="531" r="9" fill="#6C63FF" opacity="0.8"/><circle cx="495" cy="84" r="9" fill="#6C63FF" opacity="0.8"/><circle cx="554" cy="258" r="14" fill="#6C63FF" opacity="0.8"/><circle cx="929" cy="465" r="9" fill="#6C63FF" opacity="0.8"/><circle cx="1008" cy="280" r="16" fill="#6C63FF" opacity="0.8"/><circle cx="714" cy="233" r="12" fill="#6C63FF" opacity="0.8"/>
<path d="M220 333 C420 180,780 480,980 313" fill="none" stroke="url(#g)" stroke-width="8" opacity="0.8"/>
</svg>