<svg xmlns="http://www.w3.org/2000/svg" viewBox="0 0 1200 675">
<defs>
<linearGradient id="bg" x1="0" y1="0" x2="1" y2="1"><stop offset="0%" stop-color="#0f172a"/><stop offset="100%" stop-color="#111827"/></linearGradient>
<linearGradient id="g" x1="0" y1="0" x2="1" y2="1"><stop offset="0%" stop-color="#6C63FF"/><stop offset="100%" stop-color="#00E5FF"/></linearGradient>
</defs>
<rect width="1200" height="675" fill="url(#bg)"/>
<rect x="221" y="410" width="6" height="6" fill="#6C63FF" opacity="0.25"/><rect x="220" y="297" width="6" height="6" fill="#6C63FF" opacity="0.25"/><rect x="791" y="68" width="6" height="6" fill="#6C63FF" opacity="0.25"/><rect x="34" y="0" width="6" height="6" fill="#6C63FF" opacity="0.25"/><rect x="437" y="214" width="6" height="6" fill="#6C63FF" opacity="0.25"/><rect x="107" y="481" width="6" height="6" fill="#6C63FF" opacity="0.25"/><rect x="768" y="406" width="6" height="6" fill="#6C63FF" opacity="0.25"/><rect x="859" y="74" width="6" height="6" fill="#6C63FF" opacity="0.25"/><rect x="1159" y="644" width="6" height="6" fill="#6C63FF" opacity="0.25"/><rect x="406" y="276" width="6" height="6" fill="#6C63FF" opacity="0.25"/><rect x="689" y="89" width="6" height="6" fill="#6C63FF" opacity="0.25"/><rect x="637" y="340" width="6" height="6" fill="#6C63FF" opacity="0.25"/><rect x="31" y="419" width="6" height="6" fill="#6C63FF" opacity="0.25"/><rect x="241" y="137" width="6" height="6" fill="#6C63FF" opacity="0.25"/><rect x="504" y="103" width="6" height="6" fill="#6C63FF" opacity="0.25"/><rect x="22" y="61" width="6" height="6" fill="#6C63FF" opacity="0.25"/><rect x="952" y="498" width="6" height="6" fill="#6C63FF" opacity="0.25"/><rect x="363" y="572" width="6" height="6" fill="#6C63FF" opacity="0.25"/><rect x="385" y="458" width="6" height="6" fill="#6C63FF" opacity="0.25"/><rect x="1042" y="195" width="6" height="6" fill="#6C63FF" opacity="0.25"/><rect x="268" y="429" width="6" height="6" fill="#6C63FF" opacity="0.25"/><rect x="785" y="119" width="6" height="6" fill="#6C63FF" opacity="0.25"/><rect x="808" y="430" width="6" height="6" fill="#6C63FF" opacity="0.25"/><rect x="435" y="0" width="6" height="6" fill="#6C63FF" opacity="0.25"/><rect x="552" y="606" width="6" height="6" fill="#6C63FF" opacity="0.25"/><rect x="622" y="20" width="6" height="6" fill="#6C63FF" opacity="0.25"/><rect x="431" y="191" width="6" height="6" fill="#6C63FF" opacity="0.25"/><rect x="807" y="616" width="6" height="6" fill="#6C63FF" opacity="0.25"/><rect x="205" y="43" width="6" height="6" fill="#6C63FF" opacity="0.25"/><rect x="299" y="218" width="6" height="6" fill="#6C63FF" opacity="0.25"/><rect x="904" y="264" width="6" height="6" fill="#6C63FF" opacity="0.25"/><rect x="19" y="624" width="6" height="6" fill="#6C63FF" opacity="0.25"/><rect x="673" y="303" width="6" height="6" fill="#6C63FF" opacity="0.25"/><rect x="790" y="75" width="6" height="6" fill="#6C63FF" opacity="0.25"/><rect x="152" y="92" width="6" height="6" fill="#6C63FF" opacity="0.25"/><rect x="427" y="596" width="6" height="6" fill="#6C63FF" opacity="0.25"/><rect x="497" y="15" width="6" height="6" fill="#6C63FF" opacity="0.25"/><rect x="755" y="380" width="6" height="6" fill="#6C63FF" opacity="0.25"/><rect x="928" y="130" width="6" height="6" fill="#6C63FF" opacity="0.25"/><rect x="990" y="588" width="6" height="6" fill="#6C63FF" opacity="0.25"/><rect x="277" y="395" width="6" height="6" fill="#6C63FF" opacity="0.25"/><rect x="374" y="642" width="6" height="6" fill="#6C63FF" opacity="0.25"/><rect x="315" y="318" width="6" height="6" fill="#6C63FF" opacity="0.25"/><rect x="467" y="625" width="6" height="6" fill="#6C63FF" opacity="0.25"/><rect x="510" y="194" width="6" height="6" fill="#6C63FF" opacity="0.25"/><rect x="324" y="644" width="6" height="6" fill="#6C63FF" opacity="0.25"/><rect x="1134" y="201" width="6" height="6" fill="#6C63FF" opacity="0.25"/><rect x="795" y="494" width="6" height="6" fill="#6C63FF" opacity="0.25"/><rect x="160" y="431" width="6" height="6" fill="#6C63FF" opacity="0.25"/><rect x="97" y="106" width="6" height="6" fill="#6C63FF" opacity="0.25"/><rect x="223" y="39" width="6" height="6" fill="#6C63FF" opacity="0.25"/><rect x="1049" y="261" width="6" height="6" fill="#6C63FF" opacity="0.25"/><rect x="488" y="401" width="6" height="6" fill="#6C63FF" opacity="0.25"/><rect x="526" y="430" width="6" height="6" fill="#6C63FF" opacity="0.25"/><rect x="1005" y="300" width="6" height="6" fill="#6C63FF" opacity="0.25"/><rect x="1065" y="179" width="6" height="6" fill="#6C63FF" opacity="0.25"/><rect x="140" y="129" width="6" height="6" fill="#6C63FF" opacity="0.25"/><rect x="467" y="490" width="6" height="6" fill="#6C63FF" opacity="0.25"/><rect x="1145" y="630" width="6" height="6" fill="#6C63FF" opacity="0.25"/><rect x="151" y="286" width="6" height="6" fill="#6C63FF" opacity="0.25"/><rect x="434" y="208" width="6" height="6" fill="#6C63FF" opacity="0.25"/><rect x="33" y="70" width="6" height="6" fill="#6C63FF" opacity="0.25"/><rect x="551" y="421" width="6" height="6" fill="#6C63FF" opacity="0.25"/><rect x="912" y="255" width="6" height="6" fill="#6C63FF" opacity="0.25"/><rect x="123" y="47" width="6" height="6" fill="#6C63FF" opacity="0.25"/><rect x="360" y="288" width="6" height="6" fill="#6C63FF" opacity="0.25"/><rect x="755" y="543" width="6" height="6" fill="#6C63FF" opacity="0.25"/><rect x="1171" y="134" width="6" height="6" fill="#6C63FF" opacity="0.25"/><rect x="188" y="370" width="6" height="6" fill="#6C63FF" opacity="0.25"/><rect x="283" y="461" width="6" height="6" fill="#6C63FF" opacity="0.25"/><rect x="677" y="534" width="6" height="6" fill="#6C63FF" opacity="0.25"/><rect x="287" y="604" width="6" height="6" fill="#6C63FF" opacity="0.25"/><rect x="71" y="18" width="6" height="6" fill="#6C63FF" opacity="0.25"/><rect x="972" y="366" width="6" height="6" fill="#6C63FF" opacity="0.25"/><rect x="638" y="34" width="6" height="6" fill="#6C63FF" opacity="0.25"/><rect x="43" y="612" width="6" height="6" fill="#6C63FF" opacity="0.25"/><rect x="153" y="493" width="6" height="6" fill="#6C63FF" opacity="0.25"/><rect x="137" y="318" width="6" height="6" fill="#6C63FF" opacity="0.25"/><rect x="653" y="139" width="6" height="6" fill="#6C63FF" opacity="0.25"/><rect x="148" y="77" width="6" height="6" fill="#6C63FF" opacity="0.25"/>
<g stroke="url(#g)" stroke-width="3"><line x1="184" y1="110" x2="156" y2="177" stroke="#00E5FF" stroke-opacity="0.35" /><line x1="1020" y1="203" x2="734" y2="95" stroke="#00E5FF" stroke-opacity="0.35" /><line x1="916" y1="317" x2="454" y2="305" stroke="#00E5FF" stroke-opacity="0.35" /><line x1="725" y1="511" x2="320" y2="345" stroke="#00E5FF" stroke-opacity="0.35" /><line x1="359" y1="407" x2="421" y2="335" stroke="#00E5FF" stroke-opacity="0.35" /><line x1="124" y1="419" x2="207" y2="314" stroke="#00E5FF" stroke-opacity="0.35" /><line x1="790" y1="222" x2="536" y2="362" stroke="#00E5FF" stroke-opacity="0.35" /><line x1="980" y1="122" x2="844" y2="210" stroke="#00E5FF" stroke-opacity="0.35" /><line x1="442" y1="468" x2="355" y2="342" stroke="#00E5FF" stroke-opacity="0.35" /><line x1="415" y1="95" x2="191" y2="368" stroke="#00E5FF" stroke-opacity="0.35" /></g>
<rect x="120" y="120" width="960" height="435" rx="24" fill="none" stroke="url(#g)" stroke-width="4" opacity="0.8"/>
<circle cx="600" cy="337" r="120" fill="url(#g)" opacity="0.15"/>
<circle cx="583" cy="523" r="16" fill="#6C63FF" opacity="0.8"/><circle cx="997" cy="553" r="15" fill="#6C63FF" opacity="0.8"/><circle cx="582" cy="340" r="17" fill="#6C63FF" opacity="0.8"/><circle cx="314" cy="174" r="16" fill="#6C63FF" opacity="0.8"/><circle cx="607" cy="402" r="17" fill="#6C63FF" opacity="0.8"/><circle cx="932" cy="175" r="9" fill="#6C63FF" opacity="0.8"/><circle cx="577" cy="235" r="10" fill="#6C63FF" opacity="0.8"/><circle cx="212" cy="355" r="18" fill="#6C63FF" opacity="0.8"/><circle cx="162" cy="384" r="14" fill="#6C63FF" opacity="0.8"/><circle cx="583" cy="414" r="17" fill="#6C63FF" opacity="0.8"/><circle cx="785" cy="160" r="17" fill="#6C63FF" opacity="0.8"/><circle cx="135" cy="505" r="16" fill="#6C63FF" opacity="0.8"/>
<path d="M220 330 C420 180,780 480,980 310" fill="none" stroke="url(#g)" stroke-width="8" opacity="0.8"/>
</svg>