<svg xmlns="http://www.w3.org/2000/svg" viewBox="0 0 1200 675">
<defs>
<linearGradient id="bg" x1="0" y1="0" x2="1" y2="1"><stop offset="0%" stop-color="#0f172a"/><stop offset="100%" stop-color="#111827"/></linearGradient>
<linearGradient id="g" x1="0" y1="0" x2="1" y2="1"><stop offset="0%" stop-color="#6C63FF"/><stop offset="100%" stop-color="#00E5FF"/></linearGradient>
</defs>
<rect width="1200" height="675" fill="url(#bg)"/>
<rect x="502" y="385" width="6" height="6" fill="#6C63FF" opacity="0.25"/><rect x="9" y="27" width="6" height="6" fill="#6C63FF" opacity="0.25"/><rect x="622" y="331" width="6" height="6" fill="#6C63FF" opacity="0.25"/><rect x="911" y="303" width="6" height="6" fill="#6C63FF" opacity="0.25"/><rect x="38" y="539" width="6" height="6" fill="#6C63FF" opacity="0.25"/><rect x="321" y="565" width="6" height="6" fill="#6C63FF" opacity="0.25"/><rect x="1122" y="450" width="6" height="6" fill="#6C63FF" opacity="0.25"/><rect x="19" y="276" width="6" height="6" fill="#6C63FF" opacity="0.25"/><rect x="1140" y="325" width="6" height="6" fill="#6C63FF" opacity="0.25"/><rect x="383" y="362" width="6" height="6" fill="#6C63FF" opacity="0.25"/><rect x="531" y="439" width="6" height="6" fill="#6C63FF" opacity="0.25"/><rect x="1022" y="502" width="6" height="6" fill="#6C63FF" opacity="0.25"/><rect x="250" y="407" width="6" height="6" fill="#6C63FF" opacity="0.25"/><rect x="535" y="374" width="6" height="6" fill="#6C63FF" opacity="0.25"/><rect x="1054" y="526" width="6" height="6" fill="#6C63FF" opacity="0.25"/><rect x="945" y="357" width="6" height="6" fill="#6C63FF" opacity="0.25"/><rect x="199" y="289" width="6" height="6" fill="#6C63FF" opacity="0.25"/><rect x="791" y="403" width="6" height="6" fill="#6C63FF" opacity="0.25"/><rect x="681" y="18" width="6" height="6" fill="#6C63FF" opacity="0.25"/><rect x="1034" y="545" width="6" height="6" fill="#6C63FF" opacity="0.25"/><rect x="993" y="335" width="6" height="6" fill="#6C63FF" opacity="0.25"/><rect x="753" y="420" width="6" height="6" fill="#6C63FF" opacity="0.25"/><rect x="156" y="379" width="6" height="6" fill="#6C63FF" opacity="0.25"/><rect x="1153" y="135" width="6" height="6" fill="#6C63FF" opacity="0.25"/><rect x="1154" y="29" width="6" height="6" fill="#6C63FF" opacity="0.25"/><rect x="817" y="515" width="6" height="6" fill="#6C63FF" opacity="0.25"/><rect x="1151" y="294" width="6" height="6" fill="#6C63FF" opacity="0.25"/><rect x="399" y="363" width="6" height="6" fill="#6C63FF" opacity="0.25"/><rect x="918" y="193" width="6" height="6" fill="#6C63FF" opacity="0.25"/><rect x="292" y="543" width="6" height="6" fill="#6C63FF" opacity="0.25"/><rect x="505" y="39" width="6" height="6" fill="#6C63FF" opacity="0.25"/><rect x="873" y="451" width="6" height="6" fill="#6C63FF" opacity="0.25"/><rect x="679" y="494" width="6" height="6" fill="#6C63FF" opacity="0.25"/><rect x="429" y="6" width="6" height="6" fill="#6C63FF" opacity="0.25"/><rect x="893" y="362" width="6" height="6" fill="#6C63FF" opacity="0.25"/><rect x="168" y="370" width="6" height="6" fill="#6C63FF" opacity="0.25"/><rect x="317" y="155" width="6" height="6" fill="#6C63FF" opacity="0.25"/><rect x="516" y="216" width="6" height="6" fill="#6C63FF" opacity="0.25"/><rect x="522" y="499" width="6" height="6" fill="#6C63FF" opacity="0.25"/><rect x="877" y="510" width="6" height="6" fill="#6C63FF" opacity="0.25"/><rect x="1127" y="190" width="6" height="6" fill="#6C63FF" opacity="0.25"/><rect x="786" y="151" width="6" height="6" fill="#6C63FF" opacity="0.25"/><rect x="829" y="125" width="6" height="6" fill="#6C63FF" opacity="0.25"/><rect x="704" y="252" width="6" height="6" fill="#6C63FF" opacity="0.25"/><rect x="445" y="637" width="6" height="6" fill="#6C63FF" opacity="0.25"/><rect x="27" y="547" width="6" height="6" fill="#6C63FF" opacity="0.25"/><rect x="736" y="514" width="6" height="6" fill="#6C63FF" opacity="0.25"/><rect x="977" y="287" width="6" height="6" fill="#6C63FF" opacity="0.25"/><rect x="963" y="222" width="6" height="6" fill="#6C63FF" opacity="0.25"/><rect x="756" y="140" width="6" height="6" fill="#6C63FF" opacity="0.25"/><rect x="1113" y="351" width="6" height="6" fill="#6C63FF" opacity="0.25"/><rect x="920" y="41" width="6" height="6" fill="#6C63FF" opacity="0.25"/><rect x="427" y="400" width="6" height="6" fill="#6C63FF" opacity="0.25"/><rect x="558" y="313" width="6" height="6" fill="#6C63FF" opacity="0.25"/><rect x="67" y="161" width="6" height="6" fill="#6C63FF" opacity="0.25"/><rect x="149" y="392" width="6" height="6" fill="#6C63FF" opacity="0.25"/><rect x="484" y="334" width="6" height="6" fill="#6C63FF" opacity="0.25"/><rect x="360" y="576" width="6" height="6" fill="#6C63FF" opacity="0.25"/><rect x="1055" y="23" width="6" height="6" fill="#6C63FF" opacity="0.25"/><rect x="384" y="480" width="6" height="6" fill="#6C63FF" opacity="0.25"/><rect x="1056" y="371" width="6" height="6" fill="#6C63FF" opacity="0.25"/><rect x="703" y="189" width="6" height="6" fill="#6C63FF" opacity="0.25"/><rect x="687" y="636" width="6" height="6" fill="#6C63FF" opacity="0.25"/><rect x="1065" y="156" width="6" height="6" fill="#6C63FF" opacity="0.25"/><rect x="108" y="57" width="6" height="6" fill="#6C63FF" opacity="0.25"/><rect x="760" y="197" width="6" height="6" fill="#6C63FF" opacity="0.25"/><rect x="559" y="175" width="6" height="6" fill="#6C63FF" opacity="0.25"/><rect x="322" y="206" width="6" height="6" fill="#6C63FF" opacity="0.25"/><rect x="371" y="384" width="6" height="6" fill="#6C63FF" opacity="0.25"/><rect x="244" y="539" width="6" height="6" fill="#6C63FF" opacity="0.25"/><rect x="603" y="487" width="6" height="6" fill="#6C63FF" opacity="0.25"/><rect x="875" y="209" width="6" height="6" fill="#6C63FF" opacity="0.25"/><rect x="321" y="76" width="6" height="6" fill="#6C63FF" opacity="0.25"/><rect x="799" y="129" width="6" height="6" fill="#6C63FF" opacity="0.25"/><rect x="750" y="140" width="6" height="6" fill="#6C63FF" opacity="0.25"/><rect x="952" y="229" width="6" height="6" fill="#6C63FF" opacity="0.25"/><rect x="570" y="204" width="6" height="6" fill="#6C63FF" opacity="0.25"/><rect x="59" y="655" width="6" height="6" fill="#6C63FF" opacity="0.25"/><rect x="1059" y="453" width="6" height="6" fill="#6C63FF" opacity="0.25"/><rect x="39" y="619" width="6" height="6" fill="#6C63FF" opacity="0.25"/>
<g stroke="url(#g)" stroke-width="3"><line x1="812" y1="181" x2="254" y2="180" stroke="#00E5FF" stroke-opacity="0.35" /><line x1="1018" y1="153" x2="429" y2="332" stroke="#00E5FF" stroke-opacity="0.35" /><line x1="731" y1="166" x2="973" y2="317" stroke="#00E5FF" stroke-opacity="0.35" /><line x1="138" y1="237" x2="750" y2="444" stroke="#00E5FF" stroke-opacity="0.35" /><line x1="181" y1="115" x2="176" y2="218" stroke="#00E5FF" stroke-opacity="0.35" /><line x1="451" y1="179" x2="179" y2="126" stroke="#00E5FF" stroke-opacity="0.35" /><line x1="953" y1="291" x2="242" y2="493" stroke="#00E5FF" stroke-opacity="0.35" /><line x1="434" y1="265" x2="654" y2="426" stroke="#00E5FF" stroke-opacity="0.35" /><line x1="237" y1="413" x2="597" y2="229" stroke="#00E5FF" stroke-opacity="0.35" /><line x1="418" y1="369" x2="794" y2="188" stroke="#00E5FF" stroke-opacity="0.35" /></g>
<rect x="120" y="120" width="960" height="435" rx="24" fill="none" stroke="url(#g)" stroke-width="4" opacity="0.8"/>
<circle cx="600" cy="337" r="120" fill="url(#g)" opacity="0.15"/>
<circle cx="581" cy="379" r="14" fill="#6C63FF" opacity="0.8"/><circle cx="585" cy="101" r="16" fill="#6C63FF" opacity="0.8"/><circle cx="809" cy="516" r="18" fill="#6C63FF" opacity="0.8"/><circle cx="604" cy="545" r="18" fill="#6C63FF" opacity="0.8"/><circle cx="815" cy="531" r="13" fill="#6C63FF" opacity="0.8"/><circle cx="222" cy="539" r="13" fill="#6C63FF" opacity="0.8"/><circle cx="205" cy="467" r="12" fill="#6C63FF" opacity="0.8"/><circle cx="401" cy="334" r="18" fill="#6C63FF" opacity="0.8"/><circle cx="476" cy="390" r="18" fill="#6C63FF" opacity="0.8"/><circle cx="617" cy="217" r="14" fill="#6C63FF" opacity="0.8"/><circle cx="148" cy="273" r="16" fill="#6C63FF" opacity="0.8"/><circle cx="706" cy="429" r="15" fill="#6C63FF" opacity="0.8"/>
<path d="M220 344 C420 180,780 480,980 324" fill="none" stroke="url(#g)" stroke-width="8" opacity="0.8"/>
</svg>