<svg xmlns="http://www.w3.org/2000/svg" viewBox="0 0 1200 675">
<defs>
<linearGradient id="bg" x1="0" y1="0" x2="1" y2="1"><stop offset="0%" stop-color="#0f172a"/><stop offset="100%" stop-color="#111827"/></linearGradient>
<linearGradient id="g" x1="0" y1="0" x2="1" y2="1"><stop offset="0%" stop-color="#6C63FF"/><stop offset="100%" stop-color="#00E5FF"/></linearGradient>
</defs>
<rect width="1200" height="675" fill="url(#bg)"/>
<rect x="234" y="344" width="6" height="6" fill="#6C63FF" opacity="0.25"/><rect x="1122" y="485" width="6" height="6" fill="#6C63FF" opacity="0.25"/><rect x="200" y="75" width="6" height="6" fill="#6C63FF" opacity="0.25"/><rect x="772" y="415" width="6" height="6" fill="#6C63FF" opacity="0.25"/><rect x="405" y="452" width="6" height="6" fill="#6C63FF" opacity="0.25"/><rect x="792" y="7" width="6" height="6" fill="#6C63FF" opacity="0.25"/><rect x="531" y="597" width="6" height="6" fill="#6C63FF" opacity="0.25"/><rect x="448" y="252" width="6" height="6" fill="#6C63FF" opacity="0.25"/><rect x="354" y="18" width="6" height="6" fill="#6C63FF" opacity="0.25"/><rect x="162" y="96" width="6" height="6" fill="#6C63FF" opacity="0.25"/><rect x="238" y="179" width="6" height="6" fill="#6C63FF" opacity="0.25"/><rect x="49" y="131" width="6" height="6" fill="#6C63FF" opacity="0.25"/><rect x="994" y="629" width="6" height="6" fill="#6C63FF" opacity="0.25"/><rect x="22" y="477" width="6" height="6" fill="#6C63FF" opacity="0.25"/><rect x="1031" y="169" width="6" height="6" fill="#6C63FF" opacity="0.25"/><rect x="1088" y="299" width="6" height="6" fill="#6C63FF" opacity="0.25"/><rect x="1118" y="452" width="6" height="6" fill="#6C63FF" opacity="0.25"/><rect x="810" y="54" width="6" height="6" fill="#6C63FF" opacity="0.25"/><rect x="798" y="534" width="6" height="6" fill="#6C63FF" opacity="0.25"/><rect x="564" y="552" width="6" height="6" fill="#6C63FF" opacity="0.25"/><rect x="1034" y="173" width="6" height="6" fill="#6C63FF" opacity="0.25"/><rect x="702" y="620" width="6" height="6" fill="#6C63FF" opacity="0.25"/><rect x="990" y="296" width="6" height="6" fill="#6C63FF" opacity="0.25"/><rect x="1016" y="100" width="6" height="6" fill="#6C63FF" opacity="0.25"/><rect x="704" y="559" width="6" height="6" fill="#6C63FF" opacity="0.25"/><rect x="174" y="613" width="6" height="6" fill="#6C63FF" opacity="0.25"/><rect x="1153" y="359" width="6" height="6" fill="#6C63FF" opacity="0.25"/><rect x="941" y="389" width="6" height="6" fill="#6C63FF" opacity="0.25"/><rect x="7" y="462" width="6" height="6" fill="#6C63FF" opacity="0.25"/><rect x="940" y="105" width="6" height="6" fill="#6C63FF" opacity="0.25"/><rect x="479" y="381" width="6" height="6" fill="#6C63FF" opacity="0.25"/><rect x="1100" y="165" width="6" height="6" fill="#6C63FF" opacity="0.25"/><rect x="933" y="108" width="6" height="6" fill="#6C63FF" opacity="0.25"/><rect x="498" y="312" width="6" height="6" fill="#6C63FF" opacity="0.25"/><rect x="246" y="255" width="6" height="6" fill="#6C63FF" opacity="0.25"/><rect x="868" y="61" width="6" height="6" fill="#6C63FF" opacity="0.25"/><rect x="844" y="359" width="6" height="6" fill="#6C63FF" opacity="0.25"/><rect x="950" y="575" width="6" height="6" fill="#6C63FF" opacity="0.25"/><rect x="54" y="183" width="6" height="6" fill="#6C63FF" opacity="0.25"/><rect x="211" y="505" width="6" height="6" fill="#6C63FF" opacity="0.25"/><rect x="658" y="526" width="6" height="6" fill="#6C63FF" opacity="0.25"/><rect x="201" y="534" width="6" height="6" fill="#6C63FF" opacity="0.25"/><rect x="504" y="556" width="6" height="6" fill="#6C63FF" opacity="0.25"/><rect x="911" y="249" width="6" height="6" fill="#6C63FF" opacity="0.25"/><rect x="296" y="214" width="6" height="6" fill="#6C63FF" opacity="0.25"/><rect x="817" y="213" width="6" height="6" fill="#6C63FF" opacity="0.25"/><rect x="528" y="234" width="6" height="6" fill="#6C63FF" opacity="0.25"/><rect x="1113" y="514" width="6" height="6" fill="#6C63FF" opacity="0.25"/><rect x="814" y="463" width="6" height="6" fill="#6C63FF" opacity="0.25"/><rect x="385" y="151" width="6" height="6" fill="#6C63FF" opacity="0.25"/><rect x="903" y="100" width="6" height="6" fill="#6C63FF" opacity="0.25"/><rect x="906" y="625" width="6" height="6" fill="#6C63FF" opacity="0.25"/><rect x="1094" y="214" width="6" height="6" fill="#6C63FF" opacity="0.25"/><rect x="2" y="608" width="6" height="6" fill="#6C63FF" opacity="0.25"/><rect x="733" y="429" width="6" height="6" fill="#6C63FF" opacity="0.25"/><rect x="1170" y="270" width="6" height="6" fill="#6C63FF" opacity="0.25"/><rect x="451" y="205" width="6" height="6" fill="#6C63FF" opacity="0.25"/><rect x="757" y="374" width="6" height="6" fill="#6C63FF" opacity="0.25"/><rect x="95" y="558" width="6" height="6" fill="#6C63FF" opacity="0.25"/><rect x="347" y="52" width="6" height="6" fill="#6C63FF" opacity="0.25"/><rect x="935" y="331" width="6" height="6" fill="#6C63FF" opacity="0.25"/><rect x="590" y="123" width="6" height="6" fill="#6C63FF" opacity="0.25"/><rect x="167" y="399" width="6" height="6" fill="#6C63FF" opacity="0.25"/><rect x="1152" y="485" width="6" height="6" fill="#6C63FF" opacity="0.25"/><rect x="107" y="56" width="6" height="6" fill="#6C63FF" opacity="0.25"/><rect x="773" y="438" width="6" height="6" fill="#6C63FF" opacity="0.25"/><rect x="47" y="356" width="6" height="6" fill="#6C63FF" opacity="0.25"/><rect x="536" y="11" width="6" height="6" fill="#6C63FF" opacity="0.25"/><rect x="274" y="141" width="6" height="6" fill="#6C63FF" opacity="0.25"/><rect x="953" y="501" width="6" height="6" fill="#6C63FF" opacity="0.25"/><rect x="251" y="314" width="6" height="6" fill="#6C63FF" opacity="0.25"/><rect x="674" y="469" width="6" height="6" fill="#6C63FF" opacity="0.25"/><rect x="816" y="115" width="6" height="6" fill="#6C63FF" opacity="0.25"/><rect x="59" y="599" width="6" height="6" fill="#6C63FF" opacity="0.25"/><rect x="1150" y="91" width="6" height="6" fill="#6C63FF" opacity="0.25"/><rect x="309" y="357" width="6" height="6" fill="#6C63FF" opacity="0.25"/><rect x="1052" y="294" width="6" height="6" fill="#6C63FF" opacity="0.25"/><rect x="1144" y="615" width="6" height="6" fill="#6C63FF" opacity="0.25"/><rect x="80" y="219" width="6" height="6" fill="#6C63FF" opacity="0.25"/><rect x="685" y="459" width="6" height="6" fill="#6C63FF" opacity="0.25"/>
<g stroke="url(#g)" stroke-width="3"><line x1="452" y1="120" x2="280" y2="254" stroke="#00E5FF" stroke-opacity="0.35" /><line x1="288" y1="369" x2="195" y2="324" stroke="#00E5FF" stroke-opacity="0.35" /><line x1="986" y1="264" x2="205" y2="230" stroke="#00E5FF" stroke-opacity="0.35" /><line x1="284" y1="375" x2="198" y2="425" stroke="#00E5FF" stroke-opacity="0.35" /><line x1="253" y1="359" x2="868" y2="501" stroke="#00E5FF" stroke-opacity="0.35" /><line x1="571" y1="577" x2="954" y2="333" stroke="#00E5FF" stroke-opacity="0.35" /><line x1="450" y1="282" x2="753" y2="279" stroke="#00E5FF" stroke-opacity="0.35" /><line x1="156" y1="215" x2="914" y2="384" stroke="#00E5FF" stroke-opacity="0.35" /><line x1="908" y1="574" x2="587" y2="337" stroke="#00E5FF" stroke-opacity="0.35" /><line x1="688" y1="467" x2="166" y2="535" stroke="#00E5FF" stroke-opacity="0.35" /></g>
<rect x="120" y="120" width="960" height="435" rx="24" fill="none" stroke="url(#g)" stroke-width="4" opacity="0.8"/>
<circle cx="600" cy="337" r="120" fill="url(#g)" opacity="0.15"/>
<circle cx="681" cy="251" r="10" fill="#6C63FF" opacity="0.8"/><circle cx="885" cy="254" r="10" fill="#6C63FF" opacity="0.8"/><circle cx="412" cy="301" r="12" fill="#6C63FF" opacity="0.8"/><circle cx="700" cy="111" r="16" fill="#6C63FF" opacity="0.8"/><circle cx="893" cy="521" r="12" fill="#6C63FF" opacity="0.8"/><circle cx="788" cy="267" r="17" fill="#6C63FF" opacity="0.8"/><circle cx="888" cy="129" r="13" fill="#6C63FF" opacity="0.8"/><circle cx="128" cy="569" r="16" fill="#6C63FF" opacity="0.8"/><circle cx="131" cy="129" r="15" fill="#6C63FF" opacity="0.8"/><circle cx="503" cy="454" r="8" fill="#6C63FF" opacity="0.8"/><circle cx="469" cy="425" r="15" fill="#6C63FF" opacity="0.8"/><circle cx="172" cy="91" r="11" fill="#6C63FF" opacity="0.8"/>
<path d="M220 329 C420 180,780 480,980 309" fill="none" stroke="url(#g)" stroke-width="8" opacity="0.8"/>
</svg>