<svg xmlns="http://www.w3.org/2000/svg" viewBox="0 0 1200 675">
<defs>
<linearGradient id="bg" x1="0" y1="0" x2="1" y2="1"><stop offset="0%" stop-color="#0f172a"/><stop offset="100%" stop-color="#111827"/></linearGradient>
<linearGradient id="g" x1="0" y1="0" x2="1" y2="1"><stop offset="0%" stop-color="#6C63FF"/><stop offset="100%" stop-color="#00E5FF"/></linearGradient>
</defs>
<rect width="1200" height="675" fill="url(#bg)"/>
<rect x="850" y="648" width="6" height="6" fill="#6C63FF" opacity="0.25"/><rect x="580" y="536" width="6" height="6" fill="#6C63FF" opacity="0.25"/><rect x="723" y="157" width="6" height="6" fill="#6C63FF" opacity="0.25"/><rect x="1154" y="454" width="6" height="6" fill="#6C63FF" opacity="0.25"/><rect x="700" y="461" width="6" height="6" fill="#6C63FF" opacity="0.25"/><rect x="1158" y="207" width="6" height="6" fill="#6C63FF" opacity="0.25"/><rect x="706" y="455" width="6" height="6" fill="#6C63FF" opacity="0.25"/><rect x="723" y="60" width="6" height="6" fill="#6C63FF" opacity="0.25"/><rect x="848" y="183" width="6" height="6" fill="#6C63FF" opacity="0.25"/><rect x="1048" y="313" width="6" height="6" fill="#6C63FF" opacity="0.25"/><rect x="447" y="533" width="6" height="6" fill="#6C63FF" opacity="0.25"/><rect x="1127" y="151" width="6" height="6" fill="#6C63FF" opacity="0.25"/><rect x="207" y="419" width="6" height="6" fill="#6C63FF" opacity="0.25"/><rect x="95" y="9" width="6" height="6" fill="#6C63FF" opacity="0.25"/><rect x="667" y="552" width="6" height="6" fill="#6C63FF" opacity="0.25"/><rect x="326" y="18" width="6" height="6" fill="#6C63FF" opacity="0.25"/><rect x="853" y="8" width="6" height="6" fill="#6C63FF" opacity="0.25"/><rect x="1032" y="307" width="6" height="6" fill="#6C63FF" opacity="0.25"/><rect x="431" y="381" width="6" height="6" fill="#6C63FF" opacity="0.25"/><rect x="764" y="108" width="6" height="6" fill="#6C63FF" opacity="0.25"/><rect x="832" y="237" width="6" height="6" fill="#6C63FF" opacity="0.25"/><rect x="501" y="582" width="6" height="6" fill="#6C63FF" opacity="0.25"/><rect x="1050" y="432" width="6" height="6" fill="#6C63FF" opacity="0.25"/><rect x="428" y="407" width="6" height="6" fill="#6C63FF" opacity="0.25"/><rect x="584" y="539" width="6" height="6" fill="#6C63FF" opacity="0.25"/><rect x="627" y="274" width="6" height="6" fill="#6C63FF" opacity="0.25"/><rect x="364" y="54" width="6" height="6" fill="#6C63FF" opacity="0.25"/><rect x="307" y="123" width="6" height="6" fill="#6C63FF" opacity="0.25"/><rect x="844" y="180" width="6" height="6" fill="#6C63FF" opacity="0.25"/><rect x="202" y="464" width="6" height="6" fill="#6C63FF" opacity="0.25"/><rect x="843" y="323" width="6" height="6" fill="#6C63FF" opacity="0.25"/><rect x="945" y="644" width="6" height="6" fill="#6C63FF" opacity="0.25"/><rect x="674" y="494" width="6" height="6" fill="#6C63FF" opacity="0.25"/><rect x="1076" y="433" width="6" height="6" fill="#6C63FF" opacity="0.25"/><rect x="426" y="237" width="6" height="6" fill="#6C63FF" opacity="0.25"/><rect x="541" y="614" width="6" height="6" fill="#6C63FF" opacity="0.25"/><rect x="376" y="53" width="6" height="6" fill="#6C63FF" opacity="0.25"/><rect x="1156" y="403" width="6" height="6" fill="#6C63FF" opacity="0.25"/><rect x="149" y="164" width="6" height="6" fill="#6C63FF" opacity="0.25"/><rect x="410" y="533" width="6" height="6" fill="#6C63FF" opacity="0.25"/><rect x="861" y="356" width="6" height="6" fill="#6C63FF" opacity="0.25"/><rect x="660" y="480" width="6" height="6" fill="#6C63FF" opacity="0.25"/><rect x="1151" y="122" width="6" height="6" fill="#6C63FF" opacity="0.25"/><rect x="535" y="290" width="6" height="6" fill="#6C63FF" opacity="0.25"/><rect x="631" y="83" width="6" height="6" fill="#6C63FF" opacity="0.25"/><rect x="461" y="125" width="6" height="6" fill="#6C63FF" opacity="0.25"/><rect x="211" y="573" width="6" height="6" fill="#6C63FF" opacity="0.25"/><rect x="908" y="223" width="6" height="6" fill="#6C63FF" opacity="0.25"/><rect x="314" y="321" width="6" height="6" fill="#6C63FF" opacity="0.25"/><rect x="31" y="159" width="6" height="6" fill="#6C63FF" opacity="0.25"/><rect x="1034" y="655" width="6" height="6" fill="#6C63FF" opacity="0.25"/><rect x="212" y="549" width="6" height="6" fill="#6C63FF" opacity="0.25"/><rect x="698" y="519" width="6" height="6" fill="#6C63FF" opacity="0.25"/><rect x="573" y="119" width="6" height="6" fill="#6C63FF" opacity="0.25"/><rect x="1026" y="332" width="6" height="6" fill="#6C63FF" opacity="0.25"/><rect x="573" y="323" width="6" height="6" fill="#6C63FF" opacity="0.25"/><rect x="956" y="86" width="6" height="6" fill="#6C63FF" opacity="0.25"/><rect x="530" y="362" width="6" height="6" fill="#6C63FF" opacity="0.25"/><rect x="78" y="332" width="6" height="6" fill="#6C63FF" opacity="0.25"/><rect x="288" y="196" width="6" height="6" fill="#6C63FF" opacity="0.25"/><rect x="72" y="566" width="6" height="6" fill="#6C63FF" opacity="0.25"/><rect x="1177" y="204" width="6" height="6" fill="#6C63FF" opacity="0.25"/><rect x="199" y="200" width="6" height="6" fill="#6C63FF" opacity="0.25"/><rect x="328" y="191" width="6" height="6" fill="#6C63FF" opacity="0.25"/><rect x="865" y="117" width="6" height="6" fill="#6C63FF" opacity="0.25"/><rect x="57" y="406" width="6" height="6" fill="#6C63FF" opacity="0.25"/><rect x="437" y="379" width="6" height="6" fill="#6C63FF" opacity="0.25"/><rect x="170" y="549" width="6" height="6" fill="#6C63FF" opacity="0.25"/><rect x="912" y="334" width="6" height="6" fill="#6C63FF" opacity="0.25"/><rect x="761" y="523" width="6" height="6" fill="#6C63FF" opacity="0.25"/><rect x="679" y="433" width="6" height="6" fill="#6C63FF" opacity="0.25"/><rect x="204" y="566" width="6" height="6" fill="#6C63FF" opacity="0.25"/><rect x="1067" y="585" width="6" height="6" fill="#6C63FF" opacity="0.25"/><rect x="402" y="282" width="6" height="6" fill="#6C63FF" opacity="0.25"/><rect x="305" y="271" width="6" height="6" fill="#6C63FF" opacity="0.25"/><rect x="429" y="219" width="6" height="6" fill="#6C63FF" opacity="0.25"/><rect x="1076" y="279" width="6" height="6" fill="#6C63FF" opacity="0.25"/><rect x="1082" y="171" width="6" height="6" fill="#6C63FF" opacity="0.25"/><rect x="149" y="596" width="6" height="6" fill="#6C63FF" opacity="0.25"/><rect x="298" y="623" width="6" height="6" fill="#6C63FF" opacity="0.25"/>
<g stroke="url(#g)" stroke-width="3"><line x1="429" y1="277" x2="690" y2="481" stroke="#00E5FF" stroke-opacity="0.35" /><line x1="963" y1="258" x2="504" y2="455" stroke="#00E5FF" stroke-opacity="0.35" /><line x1="923" y1="414" x2="1009" y2="473" stroke="#00E5FF" stroke-opacity="0.35" /><line x1="827" y1="360" x2="562" y2="168" stroke="#00E5FF" stroke-opacity="0.35" /><line x1="467" y1="171" x2="513" y2="423" stroke="#00E5FF" stroke-opacity="0.35" /><line x1="502" y1="458" x2="695" y2="504" stroke="#00E5FF" stroke-opacity="0.35" /><line x1="954" y1="189" x2="391" y2="480" stroke="#00E5FF" stroke-opacity="0.35" /><line x1="165" y1="347" x2="180" y2="540" stroke="#00E5FF" stroke-opacity="0.35" /><line x1="520" y1="298" x2="308" y2="355" stroke="#00E5FF" stroke-opacity="0.35" /><line x1="321" y1="115" x2="673" y2="303" stroke="#00E5FF" stroke-opacity="0.35" /></g>
<rect x="120" y="120" width="960" height="435" rx="24" fill="none" stroke="url(#g)" stroke-width="4" opacity="0.8"/>
<circle cx="600" cy="337" r="120" fill="url(#g)" opacity="0.15"/>
<circle cx="205" cy="382" r="10" fill="#6C63FF" opacity="0.8"/><circle cx="820" cy="427" r="10" fill="#6C63FF" opacity="0.8"/><circle cx="531" cy="565" r="15" fill="#6C63FF" opacity="0.8"/><circle cx="984" cy="480" r="15" fill="#6C63FF" opacity="0.8"/><circle cx="596" cy="314" r="12" fill="#6C63FF" opacity="0.8"/><circle cx="369" cy="176" r="17" fill="#6C63FF" opacity="0.8"/><circle cx="980" cy="269" r="15" fill="#6C63FF" opacity="0.8"/><circle cx="342" cy="573" r="11" fill="#6C63FF" opacity="0.8"/><circle cx="515" cy="466" r="9" fill="#6C63FF" opacity="0.8"/><circle cx="904" cy="504" r="9" fill="#6C63FF" opacity="0.8"/><circle cx="939" cy="429" r="15" fill="#6C63FF" opacity="0.8"/><circle cx="834" cy="358" r="18" fill="#6C63FF" opacity="0.8"/>
<path d="M220 335 C420 180,780 480,980 315" fill="none" stroke="url(#g)" stroke-width="8" opacity="0.8"/>
</svg>