<svg xmlns="http://www.w3.org/2000/svg" viewBox="0 0 1200 675">
<defs>
<linearGradient id="bg" x1="0" y1="0" x2="1" y2="1"><stop offset="0%" stop-color="#0f172a"/><stop offset="100%" stop-color="#111827"/></linearGradient>
<linearGradient id="g" x1="0" y1="0" x2="1" y2="1"><stop offset="0%" stop-color="#6C63FF"/><stop offset="100%" stop-color="#00E5FF"/></linearGradient>
</defs>
<rect width="1200" height="675" fill="url(#bg)"/>
<rect x="448" y="493" width="6" height="6" fill="#6C63FF" opacity="0.25"/><rect x="84" y="269" width="6" height="6" fill="#6C63FF" opacity="0.25"/><rect x="688" y="300" width="6" height="6" fill="#6C63FF" opacity="0.25"/><rect x="684" y="585" width="6" height="6" fill="#6C63FF" opacity="0.25"/><rect x="811" y="493" width="6" height="6" fill="#6C63FF" opacity="0.25"/><rect x="647" y="218" width="6" height="6" fill="#6C63FF" opacity="0.25"/><rect x="195" y="313" width="6" height="6" fill="#6C63FF" opacity="0.25"/><rect x="361" y="573" width="6" height="6" fill="#6C63FF" opacity="0.25"/><rect x="1117" y="302" width="6" height="6" fill="#6C63FF" opacity="0.25"/><rect x="191" y="177" width="6" height="6" fill="#6C63FF" opacity="0.25"/><rect x="394" y="29" width="6" height="6" fill="#6C63FF" opacity="0.25"/><rect x="767" y="97" width="6" height="6" fill="#6C63FF" opacity="0.25"/><rect x="817" y="291" width="6" height="6" fill="#6C63FF" opacity="0.25"/><rect x="625" y="201" width="6" height="6" fill="#6C63FF" opacity="0.25"/><rect x="233" y="465" width="6" height="6" fill="#6C63FF" opacity="0.25"/><rect x="414" y="341" width="6" height="6" fill="#6C63FF" opacity="0.25"/><rect x="910" y="412" width="6" height="6" fill="#6C63FF" opacity="0.25"/><rect x="99" y="575" width="6" height="6" fill="#6C63FF" opacity="0.25"/><rect x="241" y="274" width="6" height="6" fill="#6C63FF" opacity="0.25"/><rect x="202" y="652" width="6" height="6" fill="#6C63FF" opacity="0.25"/><rect x="244" y="198" width="6" height="6" fill="#6C63FF" opacity="0.25"/><rect x="411" y="343" width="6" height="6" fill="#6C63FF" opacity="0.25"/><rect x="332" y="155" width="6" height="6" fill="#6C63FF" opacity="0.25"/><rect x="974" y="59" width="6" height="6" fill="#6C63FF" opacity="0.25"/><rect x="1020" y="626" width="6" height="6" fill="#6C63FF" opacity="0.25"/><rect x="1048" y="284" width="6" height="6" fill="#6C63FF" opacity="0.25"/><rect x="762" y="627" width="6" height="6" fill="#6C63FF" opacity="0.25"/><rect x="1004" y="651" width="6" height="6" fill="#6C63FF" opacity="0.25"/><rect x="77" y="114" width="6" height="6" fill="#6C63FF" opacity="0.25"/><rect x="994" y="141" width="6" height="6" fill="#6C63FF" opacity="0.25"/><rect x="1019" y="25" width="6" height="6" fill="#6C63FF" opacity="0.25"/><rect x="521" y="501" width="6" height="6" fill="#6C63FF" opacity="0.25"/><rect x="962" y="357" width="6" height="6" fill="#6C63FF" opacity="0.25"/><rect x="486" y="11" width="6" height="6" fill="#6C63FF" opacity="0.25"/><rect x="198" y="384" width="6" height="6" fill="#6C63FF" opacity="0.25"/><rect x="578" y="456" width="6" height="6" fill="#6C63FF" opacity="0.25"/><rect x="360" y="46" width="6" height="6" fill="#6C63FF" opacity="0.25"/><rect x="270" y="127" width="6" height="6" fill="#6C63FF" opacity="0.25"/><rect x="1161" y="628" width="6" height="6" fill="#6C63FF" opacity="0.25"/><rect x="102" y="628" width="6" height="6" fill="#6C63FF" opacity="0.25"/><rect x="422" y="197" width="6" height="6" fill="#6C63FF" opacity="0.25"/><rect x="611" y="188" width="6" height="6" fill="#6C63FF" opacity="0.25"/><rect x="1135" y="465" width="6" height="6" fill="#6C63FF" opacity="0.25"/><rect x="1143" y="525" width="6" height="6" fill="#6C63FF" opacity="0.25"/><rect x="1073" y="515" width="6" height="6" fill="#6C63FF" opacity="0.25"/><rect x="822" y="232" width="6" height="6" fill="#6C63FF" opacity="0.25"/><rect x="1073" y="199" width="6" height="6" fill="#6C63FF" opacity="0.25"/><rect x="945" y="315" width="6" height="6" fill="#6C63FF" opacity="0.25"/><rect x="956" y="333" width="6" height="6" fill="#6C63FF" opacity="0.25"/><rect x="273" y="380" width="6" height="6" fill="#6C63FF" opacity="0.25"/><rect x="252" y="535" width="6" height="6" fill="#6C63FF" opacity="0.25"/><rect x="710" y="196" width="6" height="6" fill="#6C63FF" opacity="0.25"/><rect x="599" y="388" width="6" height="6" fill="#6C63FF" opacity="0.25"/><rect x="340" y="43" width="6" height="6" fill="#6C63FF" opacity="0.25"/><rect x="243" y="435" width="6" height="6" fill="#6C63FF" opacity="0.25"/><rect x="425" y="144" width="6" height="6" fill="#6C63FF" opacity="0.25"/><rect x="502" y="389" width="6" height="6" fill="#6C63FF" opacity="0.25"/><rect x="629" y="209" width="6" height="6" fill="#6C63FF" opacity="0.25"/><rect x="871" y="314" width="6" height="6" fill="#6C63FF" opacity="0.25"/><rect x="1109" y="601" width="6" height="6" fill="#6C63FF" opacity="0.25"/><rect x="497" y="275" width="6" height="6" fill="#6C63FF" opacity="0.25"/><rect x="77" y="33" width="6" height="6" fill="#6C63FF" opacity="0.25"/><rect x="967" y="629" width="6" height="6" fill="#6C63FF" opacity="0.25"/><rect x="561" y="265" width="6" height="6" fill="#6C63FF" opacity="0.25"/><rect x="1098" y="207" width="6" height="6" fill="#6C63FF" opacity="0.25"/><rect x="890" y="372" width="6" height="6" fill="#6C63FF" opacity="0.25"/><rect x="431" y="410" width="6" height="6" fill="#6C63FF" opacity="0.25"/><rect x="68" y="454" width="6" height="6" fill="#6C63FF" opacity="0.25"/><rect x="786" y="203" width="6" height="6" fill="#6C63FF" opacity="0.25"/><rect x="491" y="219" width="6" height="6" fill="#6C63FF" opacity="0.25"/><rect x="659" y="353" width="6" height="6" fill="#6C63FF" opacity="0.25"/><rect x="608" y="377" width="6" height="6" fill="#6C63FF" opacity="0.25"/><rect x="230" y="221" width="6" height="6" fill="#6C63FF" opacity="0.25"/><rect x="135" y="255" width="6" height="6" fill="#6C63FF" opacity="0.25"/><rect x="982" y="511" width="6" height="6" fill="#6C63FF" opacity="0.25"/><rect x="925" y="284" width="6" height="6" fill="#6C63FF" opacity="0.25"/><rect x="371" y="427" width="6" height="6" fill="#6C63FF" opacity="0.25"/><rect x="69" y="69" width="6" height="6" fill="#6C63FF" opacity="0.25"/><rect x="988" y="157" width="6" height="6" fill="#6C63FF" opacity="0.25"/><rect x="608" y="485" width="6" height="6" fill="#6C63FF" opacity="0.25"/>
<g stroke="url(#g)" stroke-width="3"><line x1="458" y1="280" x2="493" y2="385" stroke="#00E5FF" stroke-opacity="0.35" /><line x1="372" y1="187" x2="861" y2="191" stroke="#00E5FF" stroke-opacity="0.35" /><line x1="546" y1="379" x2="798" y2="360" stroke="#00E5FF" stroke-opacity="0.35" /><line x1="181" y1="568" x2="172" y2="509" stroke="#00E5FF" stroke-opacity="0.35" /><line x1="304" y1="262" x2="257" y2="184" stroke="#00E5FF" stroke-opacity="0.35" /><line x1="271" y1="508" x2="935" y2="272" stroke="#00E5FF" stroke-opacity="0.35" /><line x1="151" y1="124" x2="872" y2="351" stroke="#00E5FF" stroke-opacity="0.35" /><line x1="1009" y1="304" x2="786" y2="494" stroke="#00E5FF" stroke-opacity="0.35" /><line x1="343" y1="186" x2="935" y2="301" stroke="#00E5FF" stroke-opacity="0.35" /><line x1="867" y1="268" x2="318" y2="249" stroke="#00E5FF" stroke-opacity="0.35" /></g>
<rect x="120" y="120" width="960" height="435" rx="24" fill="none" stroke="url(#g)" stroke-width="4" opacity="0.8"/>
<circle cx="600" cy="337" r="120" fill="url(#g)" opacity="0.15"/>
<circle cx="132" cy="320" r="9" fill="#6C63FF" opacity="0.8"/><circle cx="902" cy="281" r="10" fill="#6C63FF" opacity="0.8"/><circle cx="820" cy="102" r="10" fill="#6C63FF" opacity="0.8"/><circle cx="235" cy="354" r="11" fill="#6C63FF" opacity="0.8"/><circle cx="848" cy="467" r="10" fill="#6C63FF" opacity="0.8"/><circle cx="270" cy="459" r="8" fill="#6C63FF" opacity="0.8"/><circle cx="798" cy="111" r="10" fill="#6C63FF" opacity="0.8"/><circle cx="356" cy="354" r="15" fill="#6C63FF" opacity="0.8"/><circle cx="658" cy="291" r="11" fill="#6C63FF" opacity="0.8"/><circle cx="727" cy="127" r="9" fill="#6C63FF" opacity="0.8"/><circle cx="140" cy="474" r="14" fill="#6C63FF" opacity="0.8"/><circle cx="469" cy="181" r="11" fill="#6C63FF" opacity="0.8"/>
<path d="M220 325 C420 180,780 480,980 305" fill="none" stroke="url(#g)" stroke-width="8" opacity="0.8"/>
</svg>