<svg xmlns="http://www.w3.org/2000/svg" viewBox="0 0 1200 675">
<defs>
<linearGradient id="bg" x1="0" y1="0" x2="1" y2="1"><stop offset="0%" stop-color="#0f172a"/><stop offset="100%" stop-color="#111827"/></linearGradient>
<linearGradient id="g" x1="0" y1="0" x2="1" y2="1"><stop offset="0%" stop-color="#6C63FF"/><stop offset="100%" stop-color="#00E5FF"/></linearGradient>
</defs>
<rect width="1200" height="675" fill="url(#bg)"/>
<rect x="428" y="308" width="6" height="6" fill="#6C63FF" opacity="0.25"/><rect x="266" y="425" width="6" height="6" fill="#6C63FF" opacity="0.25"/><rect x="961" y="599" width="6" height="6" fill="#6C63FF" opacity="0.25"/><rect x="219" y="408" width="6" height="6" fill="#6C63FF" opacity="0.25"/><rect x="161" y="260" width="6" height="6" fill="#6C63FF" opacity="0.25"/><rect x="114" y="266" width="6" height="6" fill="#6C63FF" opacity="0.25"/><rect x="610" y="321" width="6" height="6" fill="#6C63FF" opacity="0.25"/><rect x="552" y="128" width="6" height="6" fill="#6C63FF" opacity="0.25"/><rect x="171" y="614" width="6" height="6" fill="#6C63FF" opacity="0.25"/><rect x="848" y="462" width="6" height="6" fill="#6C63FF" opacity="0.25"/><rect x="1017" y="498" width="6" height="6" fill="#6C63FF" opacity="0.25"/><rect x="140" y="493" width="6" height="6" fill="#6C63FF" opacity="0.25"/><rect x="536" y="561" width="6" height="6" fill="#6C63FF" opacity="0.25"/><rect x="727" y="127" width="6" height="6" fill="#6C63FF" opacity="0.25"/><rect x="575" y="229" width="6" height="6" fill="#6C63FF" opacity="0.25"/><rect x="803" y="572" width="6" height="6" fill="#6C63FF" opacity="0.25"/><rect x="866" y="483" width="6" height="6" fill="#6C63FF" opacity="0.25"/><rect x="357" y="650" width="6" height="6" fill="#6C63FF" opacity="0.25"/><rect x="566" y="58" width="6" height="6" fill="#6C63FF" opacity="0.25"/><rect x="487" y="652" width="6" height="6" fill="#6C63FF" opacity="0.25"/><rect x="727" y="428" width="6" height="6" fill="#6C63FF" opacity="0.25"/><rect x="661" y="361" width="6" height="6" fill="#6C63FF" opacity="0.25"/><rect x="1150" y="655" width="6" height="6" fill="#6C63FF" opacity="0.25"/><rect x="7" y="36" width="6" height="6" fill="#6C63FF" opacity="0.25"/><rect x="727" y="204" width="6" height="6" fill="#6C63FF" opacity="0.25"/><rect x="1001" y="335" width="6" height="6" fill="#6C63FF" opacity="0.25"/><rect x="960" y="543" width="6" height="6" fill="#6C63FF" opacity="0.25"/><rect x="596" y="541" width="6" height="6" fill="#6C63FF" opacity="0.25"/><rect x="830" y="274" width="6" height="6" fill="#6C63FF" opacity="0.25"/><rect x="1003" y="213" width="6" height="6" fill="#6C63FF" opacity="0.25"/><rect x="507" y="188" width="6" height="6" fill="#6C63FF" opacity="0.25"/><rect x="1107" y="213" width="6" height="6" fill="#6C63FF" opacity="0.25"/><rect x="708" y="456" width="6" height="6" fill="#6C63FF" opacity="0.25"/><rect x="1000" y="10" width="6" height="6" fill="#6C63FF" opacity="0.25"/><rect x="98" y="571" width="6" height="6" fill="#6C63FF" opacity="0.25"/><rect x="201" y="609" width="6" height="6" fill="#6C63FF" opacity="0.25"/><rect x="1033" y="260" width="6" height="6" fill="#6C63FF" opacity="0.25"/><rect x="372" y="491" width="6" height="6" fill="#6C63FF" opacity="0.25"/><rect x="432" y="422" width="6" height="6" fill="#6C63FF" opacity="0.25"/><rect x="248" y="432" width="6" height="6" fill="#6C63FF" opacity="0.25"/><rect x="402" y="288" width="6" height="6" fill="#6C63FF" opacity="0.25"/><rect x="421" y="526" width="6" height="6" fill="#6C63FF" opacity="0.25"/><rect x="57" y="640" width="6" height="6" fill="#6C63FF" opacity="0.25"/><rect x="453" y="481" width="6" height="6" fill="#6C63FF" opacity="0.25"/><rect x="1159" y="487" width="6" height="6" fill="#6C63FF" opacity="0.25"/><rect x="419" y="435" width="6" height="6" fill="#6C63FF" opacity="0.25"/><rect x="53" y="371" width="6" height="6" fill="#6C63FF" opacity="0.25"/><rect x="897" y="279" width="6" height="6" fill="#6C63FF" opacity="0.25"/><rect x="191" y="436" width="6" height="6" fill="#6C63FF" opacity="0.25"/><rect x="726" y="437" width="6" height="6" fill="#6C63FF" opacity="0.25"/><rect x="1124" y="403" width="6" height="6" fill="#6C63FF" opacity="0.25"/><rect x="666" y="78" width="6" height="6" fill="#6C63FF" opacity="0.25"/><rect x="115" y="139" width="6" height="6" fill="#6C63FF" opacity="0.25"/><rect x="889" y="150" width="6" height="6" fill="#6C63FF" opacity="0.25"/><rect x="51" y="92" width="6" height="6" fill="#6C63FF" opacity="0.25"/><rect x="1097" y="56" width="6" height="6" fill="#6C63FF" opacity="0.25"/><rect x="552" y="372" width="6" height="6" fill="#6C63FF" opacity="0.25"/><rect x="99" y="652" width="6" height="6" fill="#6C63FF" opacity="0.25"/><rect x="1135" y="71" width="6" height="6" fill="#6C63FF" opacity="0.25"/><rect x="863" y="553" width="6" height="6" fill="#6C63FF" opacity="0.25"/><rect x="495" y="22" width="6" height="6" fill="#6C63FF" opacity="0.25"/><rect x="1034" y="456" width="6" height="6" fill="#6C63FF" opacity="0.25"/><rect x="166" y="38" width="6" height="6" fill="#6C63FF" opacity="0.25"/><rect x="728" y="438" width="6" height="6" fill="#6C63FF" opacity="0.25"/><rect x="28" y="418" width="6" height="6" fill="#6C63FF" opacity="0.25"/><rect x="1029" y="229" width="6" height="6" fill="#6C63FF" opacity="0.25"/><rect x="533" y="153" width="6" height="6" fill="#6C63FF" opacity="0.25"/><rect x="278" y="585" width="6" height="6" fill="#6C63FF" opacity="0.25"/><rect x="586" y="552" width="6" height="6" fill="#6C63FF" opacity="0.25"/><rect x="1056" y="512" width="6" height="6" fill="#6C63FF" opacity="0.25"/><rect x="547" y="555" width="6" height="6" fill="#6C63FF" opacity="0.25"/><rect x="128" y="406" width="6" height="6" fill="#6C63FF" opacity="0.25"/><rect x="971" y="564" width="6" height="6" fill="#6C63FF" opacity="0.25"/><rect x="46" y="325" width="6" height="6" fill="#6C63FF" opacity="0.25"/><rect x="248" y="529" width="6" height="6" fill="#6C63FF" opacity="0.25"/><rect x="216" y="610" width="6" height="6" fill="#6C63FF" opacity="0.25"/><rect x="82" y="649" width="6" height="6" fill="#6C63FF" opacity="0.25"/><rect x="618" y="73" width="6" height="6" fill="#6C63FF" opacity="0.25"/><rect x="479" y="176" width="6" height="6" fill="#6C63FF" opacity="0.25"/><rect x="189" y="492" width="6" height="6" fill="#6C63FF" opacity="0.25"/>
<g stroke="url(#g)" stroke-width="3"><line x1="704" y1="317" x2="978" y2="194" stroke="#00E5FF" stroke-opacity="0.35" /><line x1="173" y1="273" x2="357" y2="125" stroke="#00E5FF" stroke-opacity="0.35" /><line x1="634" y1="409" x2="884" y2="299" stroke="#00E5FF" stroke-opacity="0.35" /><line x1="319" y1="196" x2="902" y2="185" stroke="#00E5FF" stroke-opacity="0.35" /><line x1="540" y1="167" x2="432" y2="249" stroke="#00E5FF" stroke-opacity="0.35" /><line x1="969" y1="84" x2="229" y2="502" stroke="#00E5FF" stroke-opacity="0.35" /><line x1="540" y1="238" x2="452" y2="265" stroke="#00E5FF" stroke-opacity="0.35" /><line x1="753" y1="183" x2="366" y2="319" stroke="#00E5FF" stroke-opacity="0.35" /><line x1="299" y1="511" x2="288" y2="193" stroke="#00E5FF" stroke-opacity="0.35" /><line x1="436" y1="363" x2="285" y2="305" stroke="#00E5FF" stroke-opacity="0.35" /></g>
<rect x="120" y="120" width="960" height="435" rx="24" fill="none" stroke="url(#g)" stroke-width="4" opacity="0.8"/>
<circle cx="600" cy="337" r="120" fill="url(#g)" opacity="0.15"/>
<circle cx="212" cy="566" r="11" fill="#6C63FF" opacity="0.8"/><circle cx="273" cy="458" r="12" fill="#6C63FF" opacity="0.8"/><circle cx="981" cy="120" r="10" fill="#6C63FF" opacity="0.8"/><circle cx="429" cy="125" r="13" fill="#6C63FF" opacity="0.8"/><circle cx="859" cy="552" r="18" fill="#6C63FF" opacity="0.8"/><circle cx="603" cy="356" r="14" fill="#6C63FF" opacity="0.8"/><circle cx="517" cy="337" r="14" fill="#6C63FF" opacity="0.8"/><circle cx="445" cy="448" r="14" fill="#6C63FF" opacity="0.8"/><circle cx="667" cy="475" r="18" fill="#6C63FF" opacity="0.8"/><circle cx="161" cy="403" r="12" fill="#6C63FF" opacity="0.8"/><circle cx="162" cy="569" r="11" fill="#6C63FF" opacity="0.8"/><circle cx="645" cy="441" r="8" fill="#6C63FF" opacity="0.8"/>
<path d="M220 324 C420 180,780 480,980 304" fill="none" stroke="url(#g)" stroke-width="8" opacity="0.8"/>
</svg>