<svg xmlns="http://www.w3.org/2000/svg" viewBox="0 0 1200 675">
<defs>
<linearGradient id="bg" x1="0" y1="0" x2="1" y2="1"><stop offset="0%" stop-color="#0f172a"/><stop offset="100%" stop-color="#111827"/></linearGradient>
<linearGradient id="g" x1="0" y1="0" x2="1" y2="1"><stop offset="0%" stop-color="#6C63FF"/><stop offset="100%" stop-color="#00E5FF"/></linearGradient>
</defs>
<rect width="1200" height="675" fill="url(#bg)"/>
<rect x="539" y="484" width="6" height="6" fill="#6C63FF" opacity="0.25"/><rect x="112" y="62" width="6" height="6" fill="#6C63FF" opacity="0.25"/><rect x="1092" y="118" width="6" height="6" fill="#6C63FF" opacity="0.25"/><rect x="124" y="314" width="6" height="6" fill="#6C63FF" opacity="0.25"/><rect x="995" y="204" width="6" height="6" fill="#6C63FF" opacity="0.25"/><rect x="879" y="284" width="6" height="6" fill="#6C63FF" opacity="0.25"/><rect x="36" y="567" width="6" height="6" fill="#6C63FF" opacity="0.25"/><rect x="651" y="130" width="6" height="6" fill="#6C63FF" opacity="0.25"/><rect x="782" y="293" width="6" height="6" fill="#6C63FF" opacity="0.25"/><rect x="619" y="399" width="6" height="6" fill="#6C63FF" opacity="0.25"/><rect x="479" y="585" width="6" height="6" fill="#6C63FF" opacity="0.25"/><rect x="472" y="357" width="6" height="6" fill="#6C63FF" opacity="0.25"/><rect x="501" y="341" width="6" height="6" fill="#6C63FF" opacity="0.25"/><rect x="394" y="115" width="6" height="6" fill="#6C63FF" opacity="0.25"/><rect x="87" y="260" width="6" height="6" fill="#6C63FF" opacity="0.25"/><rect x="602" y="377" width="6" height="6" fill="#6C63FF" opacity="0.25"/><rect x="447" y="230" width="6" height="6" fill="#6C63FF" opacity="0.25"/><rect x="1108" y="435" width="6" height="6" fill="#6C63FF" opacity="0.25"/><rect x="624" y="156" width="6" height="6" fill="#6C63FF" opacity="0.25"/><rect x="847" y="523" width="6" height="6" fill="#6C63FF" opacity="0.25"/><rect x="510" y="624" width="6" height="6" fill="#6C63FF" opacity="0.25"/><rect x="673" y="38" width="6" height="6" fill="#6C63FF" opacity="0.25"/><rect x="427" y="359" width="6" height="6" fill="#6C63FF" opacity="0.25"/><rect x="294" y="30" width="6" height="6" fill="#6C63FF" opacity="0.25"/><rect x="27" y="131" width="6" height="6" fill="#6C63FF" opacity="0.25"/><rect x="1065" y="1" width="6" height="6" fill="#6C63FF" opacity="0.25"/><rect x="76" y="509" width="6" height="6" fill="#6C63FF" opacity="0.25"/><rect x="422" y="357" width="6" height="6" fill="#6C63FF" opacity="0.25"/><rect x="636" y="228" width="6" height="6" fill="#6C63FF" opacity="0.25"/><rect x="1114" y="369" width="6" height="6" fill="#6C63FF" opacity="0.25"/><rect x="1180" y="44" width="6" height="6" fill="#6C63FF" opacity="0.25"/><rect x="763" y="446" width="6" height="6" fill="#6C63FF" opacity="0.25"/><rect x="677" y="55" width="6" height="6" fill="#6C63FF" opacity="0.25"/><rect x="382" y="613" width="6" height="6" fill="#6C63FF" opacity="0.25"/><rect x="664" y="647" width="6" height="6" fill="#6C63FF" opacity="0.25"/><rect x="343" y="424" width="6" height="6" fill="#6C63FF" opacity="0.25"/><rect x="403" y="433" width="6" height="6" fill="#6C63FF" opacity="0.25"/><rect x="610" y="358" width="6" height="6" fill="#6C63FF" opacity="0.25"/><rect x="968" y="163" width="6" height="6" fill="#6C63FF" opacity="0.25"/><rect x="314" y="295" width="6" height="6" fill="#6C63FF" opacity="0.25"/><rect x="819" y="277" width="6" height="6" fill="#6C63FF" opacity="0.25"/><rect x="390" y="605" width="6" height="6" fill="#6C63FF" opacity="0.25"/><rect x="1013" y="258" width="6" height="6" fill="#6C63FF" opacity="0.25"/><rect x="361" y="119" width="6" height="6" fill="#6C63FF" opacity="0.25"/><rect x="573" y="116" width="6" height="6" fill="#6C63FF" opacity="0.25"/><rect x="1138" y="475" width="6" height="6" fill="#6C63FF" opacity="0.25"/><rect x="129" y="595" width="6" height="6" fill="#6C63FF" opacity="0.25"/><rect x="704" y="440" width="6" height="6" fill="#6C63FF" opacity="0.25"/><rect x="209" y="284" width="6" height="6" fill="#6C63FF" opacity="0.25"/><rect x="168" y="90" width="6" height="6" fill="#6C63FF" opacity="0.25"/><rect x="1007" y="478" width="6" height="6" fill="#6C63FF" opacity="0.25"/><rect x="609" y="11" width="6" height="6" fill="#6C63FF" opacity="0.25"/><rect x="243" y="184" width="6" height="6" fill="#6C63FF" opacity="0.25"/><rect x="497" y="149" width="6" height="6" fill="#6C63FF" opacity="0.25"/><rect x="394" y="99" width="6" height="6" fill="#6C63FF" opacity="0.25"/><rect x="727" y="17" width="6" height="6" fill="#6C63FF" opacity="0.25"/><rect x="913" y="303" width="6" height="6" fill="#6C63FF" opacity="0.25"/><rect x="381" y="634" width="6" height="6" fill="#6C63FF" opacity="0.25"/><rect x="55" y="444" width="6" height="6" fill="#6C63FF" opacity="0.25"/><rect x="1140" y="119" width="6" height="6" fill="#6C63FF" opacity="0.25"/><rect x="714" y="224" width="6" height="6" fill="#6C63FF" opacity="0.25"/><rect x="848" y="426" width="6" height="6" fill="#6C63FF" opacity="0.25"/><rect x="1152" y="609" width="6" height="6" fill="#6C63FF" opacity="0.25"/><rect x="612" y="557" width="6" height="6" fill="#6C63FF" opacity="0.25"/><rect x="44" y="614" width="6" height="6" fill="#6C63FF" opacity="0.25"/><rect x="526" y="186" width="6" height="6" fill="#6C63FF" opacity="0.25"/><rect x="1024" y="38" width="6" height="6" fill="#6C63FF" opacity="0.25"/><rect x="504" y="388" width="6" height="6" fill="#6C63FF" opacity="0.25"/><rect x="234" y="190" width="6" height="6" fill="#6C63FF" opacity="0.25"/><rect x="156" y="423" width="6" height="6" fill="#6C63FF" opacity="0.25"/><rect x="160" y="322" width="6" height="6" fill="#6C63FF" opacity="0.25"/><rect x="64" y="215" width="6" height="6" fill="#6C63FF" opacity="0.25"/><rect x="992" y="133" width="6" height="6" fill="#6C63FF" opacity="0.25"/><rect x="151" y="332" width="6" height="6" fill="#6C63FF" opacity="0.25"/><rect x="403" y="563" width="6" height="6" fill="#6C63FF" opacity="0.25"/><rect x="214" y="226" width="6" height="6" fill="#6C63FF" opacity="0.25"/><rect x="535" y="436" width="6" height="6" fill="#6C63FF" opacity="0.25"/><rect x="31" y="204" width="6" height="6" fill="#6C63FF" opacity="0.25"/><rect x="974" y="249" width="6" height="6" fill="#6C63FF" opacity="0.25"/><rect x="824" y="195" width="6" height="6" fill="#6C63FF" opacity="0.25"/>
<g stroke="url(#g)" stroke-width="3"><line x1="433" y1="94" x2="833" y2="222" stroke="#00E5FF" stroke-opacity="0.35" /><line x1="548" y1="384" x2="860" y2="414" stroke="#00E5FF" stroke-opacity="0.35" /><line x1="951" y1="301" x2="452" y2="414" stroke="#00E5FF" stroke-opacity="0.35" /><line x1="880" y1="579" x2="793" y2="568" stroke="#00E5FF" stroke-opacity="0.35" /><line x1="581" y1="185" x2="818" y2="257" stroke="#00E5FF" stroke-opacity="0.35" /><line x1="980" y1="179" x2="973" y2="384" stroke="#00E5FF" stroke-opacity="0.35" /><line x1="807" y1="325" x2="954" y2="375" stroke="#00E5FF" stroke-opacity="0.35" /><line x1="712" y1="231" x2="156" y2="555" stroke="#00E5FF" stroke-opacity="0.35" /><line x1="428" y1="133" x2="412" y2="568" stroke="#00E5FF" stroke-opacity="0.35" /><line x1="973" y1="255" x2="891" y2="88" stroke="#00E5FF" stroke-opacity="0.35" /></g>
<rect x="120" y="120" width="960" height="435" rx="24" fill="none" stroke="url(#g)" stroke-width="4" opacity="0.8"/>
<circle cx="600" cy="337" r="120" fill="url(#g)" opacity="0.15"/>
<circle cx="269" cy="457" r="11" fill="#6C63FF" opacity="0.8"/><circle cx="1016" cy="509" r="16" fill="#6C63FF" opacity="0.8"/><circle cx="224" cy="223" r="13" fill="#6C63FF" opacity="0.8"/><circle cx="780" cy="358" r="13" fill="#6C63FF" opacity="0.8"/><circle cx="846" cy="544" r="9" fill="#6C63FF" opacity="0.8"/><circle cx="492" cy="87" r="12" fill="#6C63FF" opacity="0.8"/><circle cx="514" cy="466" r="9" fill="#6C63FF" opacity="0.8"/><circle cx="976" cy="334" r="16" fill="#6C63FF" opacity="0.8"/><circle cx="750" cy="536" r="9" fill="#6C63FF" opacity="0.8"/><circle cx="899" cy="425" r="11" fill="#6C63FF" opacity="0.8"/><circle cx="376" cy="562" r="10" fill="#6C63FF" opacity="0.8"/><circle cx="836" cy="364" r="9" fill="#6C63FF" opacity="0.8"/>
<path d="M220 331 C420 180,780 480,980 311" fill="none" stroke="url(#g)" stroke-width="8" opacity="0.8"/>
</svg>