<svg xmlns="http://www.w3.org/2000/svg" viewBox="0 0 1200 675">
<defs>
<linearGradient id="bg" x1="0" y1="0" x2="1" y2="1"><stop offset="0%" stop-color="#0f172a"/><stop offset="100%" stop-color="#111827"/></linearGradient>
<linearGradient id="g" x1="0" y1="0" x2="1" y2="1"><stop offset="0%" stop-color="#00C2FF"/><stop offset="100%" stop-color="#00E676"/></linearGradient>
</defs>
<rect width="1200" height="675" fill="url(#bg)"/>
<rect x="414" y="378" width="6" height="6" fill="#00C2FF" opacity="0.25"/><rect x="1158" y="163" width="6" height="6" fill="#00C2FF" opacity="0.25"/><rect x="703" y="146" width="6" height="6" fill="#00C2FF" opacity="0.25"/><rect x="817" y="557" width="6" height="6" fill="#00C2FF" opacity="0.25"/><rect x="794" y="350" width="6" height="6" fill="#00C2FF" opacity="0.25"/><rect x="821" y="485" width="6" height="6" fill="#00C2FF" opacity="0.25"/><rect x="3" y="370" width="6" height="6" fill="#00C2FF" opacity="0.25"/><rect x="1104" y="530" width="6" height="6" fill="#00C2FF" opacity="0.25"/><rect x="146" y="100" width="6" height="6" fill="#00C2FF" opacity="0.25"/><rect x="32" y="465" width="6" height="6" fill="#00C2FF" opacity="0.25"/><rect x="238" y="227" width="6" height="6" fill="#00C2FF" opacity="0.25"/><rect x="1087" y="340" width="6" height="6" fill="#00C2FF" opacity="0.25"/><rect x="702" y="136" width="6" height="6" fill="#00C2FF" opacity="0.25"/><rect x="837" y="106" width="6" height="6" fill="#00C2FF" opacity="0.25"/><rect x="566" y="265" width="6" height="6" fill="#00C2FF" opacity="0.25"/><rect x="247" y="409" width="6" height="6" fill="#00C2FF" opacity="0.25"/><rect x="732" y="497" width="6" height="6" fill="#00C2FF" opacity="0.25"/><rect x="1169" y="333" width="6" height="6" fill="#00C2FF" opacity="0.25"/><rect x="114" y="415" width="6" height="6" fill="#00C2FF" opacity="0.25"/><rect x="134" y="477" width="6" height="6" fill="#00C2FF" opacity="0.25"/><rect x="528" y="412" width="6" height="6" fill="#00C2FF" opacity="0.25"/><rect x="768" y="240" width="6" height="6" fill="#00C2FF" opacity="0.25"/><rect x="1153" y="172" width="6" height="6" fill="#00C2FF" opacity="0.25"/><rect x="345" y="574" width="6" height="6" fill="#00C2FF" opacity="0.25"/><rect x="75" y="651" width="6" height="6" fill="#00C2FF" opacity="0.25"/><rect x="825" y="351" width="6" height="6" fill="#00C2FF" opacity="0.25"/><rect x="836" y="497" width="6" height="6" fill="#00C2FF" opacity="0.25"/><rect x="724" y="140" width="6" height="6" fill="#00C2FF" opacity="0.25"/><rect x="69" y="30" width="6" height="6" fill="#00C2FF" opacity="0.25"/><rect x="353" y="315" width="6" height="6" fill="#00C2FF" opacity="0.25"/><rect x="154" y="288" width="6" height="6" fill="#00C2FF" opacity="0.25"/><rect x="488" y="316" width="6" height="6" fill="#00C2FF" opacity="0.25"/><rect x="75" y="176" width="6" height="6" fill="#00C2FF" opacity="0.25"/><rect x="639" y="102" width="6" height="6" fill="#00C2FF" opacity="0.25"/><rect x="992" y="523" width="6" height="6" fill="#00C2FF" opacity="0.25"/><rect x="521" y="409" width="6" height="6" fill="#00C2FF" opacity="0.25"/><rect x="710" y="313" width="6" height="6" fill="#00C2FF" opacity="0.25"/><rect x="1071" y="259" width="6" height="6" fill="#00C2FF" opacity="0.25"/><rect x="335" y="533" width="6" height="6" fill="#00C2FF" opacity="0.25"/><rect x="878" y="543" width="6" height="6" fill="#00C2FF" opacity="0.25"/><rect x="532" y="505" width="6" height="6" fill="#00C2FF" opacity="0.25"/><rect x="307" y="348" width="6" height="6" fill="#00C2FF" opacity="0.25"/><rect x="847" y="470" width="6" height="6" fill="#00C2FF" opacity="0.25"/><rect x="1047" y="20" width="6" height="6" fill="#00C2FF" opacity="0.25"/><rect x="481" y="380" width="6" height="6" fill="#00C2FF" opacity="0.25"/><rect x="57" y="425" width="6" height="6" fill="#00C2FF" opacity="0.25"/><rect x="277" y="433" width="6" height="6" fill="#00C2FF" opacity="0.25"/><rect x="708" y="637" width="6" height="6" fill="#00C2FF" opacity="0.25"/><rect x="289" y="417" width="6" height="6" fill="#00C2FF" opacity="0.25"/><rect x="777" y="362" width="6" height="6" fill="#00C2FF" opacity="0.25"/><rect x="331" y="606" width="6" height="6" fill="#00C2FF" opacity="0.25"/><rect x="892" y="563" width="6" height="6" fill="#00C2FF" opacity="0.25"/><rect x="1087" y="569" width="6" height="6" fill="#00C2FF" opacity="0.25"/><rect x="644" y="610" width="6" height="6" fill="#00C2FF" opacity="0.25"/><rect x="233" y="524" width="6" height="6" fill="#00C2FF" opacity="0.25"/><rect x="746" y="236" width="6" height="6" fill="#00C2FF" opacity="0.25"/><rect x="562" y="59" width="6" height="6" fill="#00C2FF" opacity="0.25"/><rect x="532" y="173" width="6" height="6" fill="#00C2FF" opacity="0.25"/><rect x="1064" y="17" width="6" height="6" fill="#00C2FF" opacity="0.25"/><rect x="866" y="280" width="6" height="6" fill="#00C2FF" opacity="0.25"/><rect x="469" y="206" width="6" height="6" fill="#00C2FF" opacity="0.25"/><rect x="19" y="397" width="6" height="6" fill="#00C2FF" opacity="0.25"/><rect x="652" y="434" width="6" height="6" fill="#00C2FF" opacity="0.25"/><rect x="57" y="323" width="6" height="6" fill="#00C2FF" opacity="0.25"/><rect x="671" y="17" width="6" height="6" fill="#00C2FF" opacity="0.25"/><rect x="280" y="515" width="6" height="6" fill="#00C2FF" opacity="0.25"/><rect x="731" y="266" width="6" height="6" fill="#00C2FF" opacity="0.25"/><rect x="1168" y="171" width="6" height="6" fill="#00C2FF" opacity="0.25"/><rect x="232" y="535" width="6" height="6" fill="#00C2FF" opacity="0.25"/><rect x="321" y="244" width="6" height="6" fill="#00C2FF" opacity="0.25"/><rect x="207" y="371" width="6" height="6" fill="#00C2FF" opacity="0.25"/><rect x="1117" y="582" width="6" height="6" fill="#00C2FF" opacity="0.25"/><rect x="905" y="386" width="6" height="6" fill="#00C2FF" opacity="0.25"/><rect x="89" y="177" width="6" height="6" fill="#00C2FF" opacity="0.25"/><rect x="715" y="542" width="6" height="6" fill="#00C2FF" opacity="0.25"/><rect x="111" y="582" width="6" height="6" fill="#00C2FF" opacity="0.25"/><rect x="630" y="590" width="6" height="6" fill="#00C2FF" opacity="0.25"/><rect x="958" y="261" width="6" height="6" fill="#00C2FF" opacity="0.25"/><rect x="831" y="119" width="6" height="6" fill="#00C2FF" opacity="0.25"/><rect x="688" y="168" width="6" height="6" fill="#00C2FF" opacity="0.25"/>
<g stroke="url(#g)" stroke-width="3"><line x1="696" y1="89" x2="751" y2="283" stroke="#00E676" stroke-opacity="0.35" /><line x1="433" y1="539" x2="470" y2="265" stroke="#00E676" stroke-opacity="0.35" /><line x1="594" y1="541" x2="135" y2="237" stroke="#00E676" stroke-opacity="0.35" /><line x1="1005" y1="228" x2="742" y2="298" stroke="#00E676" stroke-opacity="0.35" /><line x1="362" y1="433" x2="744" y2="223" stroke="#00E676" stroke-opacity="0.35" /><line x1="319" y1="168" x2="733" y2="454" stroke="#00E676" stroke-opacity="0.35" /><line x1="151" y1="374" x2="703" y2="376" stroke="#00E676" stroke-opacity="0.35" /><line x1="324" y1="87" x2="271" y2="207" stroke="#00E676" stroke-opacity="0.35" /><line x1="261" y1="132" x2="782" y2="267" stroke="#00E676" stroke-opacity="0.35" /><line x1="580" y1="543" x2="620" y2="234" stroke="#00E676" stroke-opacity="0.35" /></g>
<rect x="120" y="120" width="960" height="435" rx="24" fill="none" stroke="url(#g)" stroke-width="4" opacity="0.8"/>
<circle cx="600" cy="337" r="120" fill="url(#g)" opacity="0.15"/>
<circle cx="709" cy="168" r="9" fill="#00C2FF" opacity="0.8"/><circle cx="954" cy="201" r="15" fill="#00C2FF" opacity="0.8"/><circle cx="437" cy="539" r="18" fill="#00C2FF" opacity="0.8"/><circle cx="484" cy="167" r="16" fill="#00C2FF" opacity="0.8"/><circle cx="311" cy="162" r="8" fill="#00C2FF" opacity="0.8"/><circle cx="386" cy="406" r="10" fill="#00C2FF" opacity="0.8"/><circle cx="1005" cy="142" r="8" fill="#00C2FF" opacity="0.8"/><circle cx="603" cy="321" r="16" fill="#00C2FF" opacity="0.8"/><circle cx="139" cy="476" r="13" fill="#00C2FF" opacity="0.8"/><circle cx="724" cy="410" r="10" fill="#00C2FF" opacity="0.8"/><circle cx="828" cy="188" r="9" fill="#00C2FF" opacity="0.8"/><circle cx="454" cy="359" r="15" fill="#00C2FF" opacity="0.8"/>
<path d="M220 331 C420 180,780 480,980 311" fill="none" stroke="url(#g)" stroke-width="8" opacity="0.8"/>
</svg>