<svg xmlns="http://www.w3.org/2000/svg" viewBox="0 0 1200 675">
<defs>
<linearGradient id="bg" x1="0" y1="0" x2="1" y2="1"><stop offset="0%" stop-color="#0f172a"/><stop offset="100%" stop-color="#111827"/></linearGradient>
<linearGradient id="g" x1="0" y1="0" x2="1" y2="1"><stop offset="0%" stop-color="#00E5FF"/><stop offset="100%" stop-color="#6C63FF"/></linearGradient>
</defs>
<rect width="1200" height="675" fill="url(#bg)"/>
<rect x="681" y="512" width="6" height="6" fill="#00E5FF" opacity="0.25"/><rect x="864" y="519" width="6" height="6" fill="#00E5FF" opacity="0.25"/><rect x="388" y="310" width="6" height="6" fill="#00E5FF" opacity="0.25"/><rect x="581" y="601" width="6" height="6" fill="#00E5FF" opacity="0.25"/><rect x="1022" y="517" width="6" height="6" fill="#00E5FF" opacity="0.25"/><rect x="805" y="603" width="6" height="6" fill="#00E5FF" opacity="0.25"/><rect x="70" y="491" width="6" height="6" fill="#00E5FF" opacity="0.25"/><rect x="497" y="413" width="6" height="6" fill="#00E5FF" opacity="0.25"/><rect x="848" y="177" width="6" height="6" fill="#00E5FF" opacity="0.25"/><rect x="751" y="561" width="6" height="6" fill="#00E5FF" opacity="0.25"/><rect x="767" y="88" width="6" height="6" fill="#00E5FF" opacity="0.25"/><rect x="898" y="520" width="6" height="6" fill="#00E5FF" opacity="0.25"/><rect x="221" y="167" width="6" height="6" fill="#00E5FF" opacity="0.25"/><rect x="1066" y="402" width="6" height="6" fill="#00E5FF" opacity="0.25"/><rect x="758" y="501" width="6" height="6" fill="#00E5FF" opacity="0.25"/><rect x="60" y="480" width="6" height="6" fill="#00E5FF" opacity="0.25"/><rect x="89" y="315" width="6" height="6" fill="#00E5FF" opacity="0.25"/><rect x="806" y="174" width="6" height="6" fill="#00E5FF" opacity="0.25"/><rect x="345" y="514" width="6" height="6" fill="#00E5FF" opacity="0.25"/><rect x="464" y="12" width="6" height="6" fill="#00E5FF" opacity="0.25"/><rect x="408" y="552" width="6" height="6" fill="#00E5FF" opacity="0.25"/><rect x="1122" y="237" width="6" height="6" fill="#00E5FF" opacity="0.25"/><rect x="828" y="526" width="6" height="6" fill="#00E5FF" opacity="0.25"/><rect x="704" y="591" width="6" height="6" fill="#00E5FF" opacity="0.25"/><rect x="723" y="470" width="6" height="6" fill="#00E5FF" opacity="0.25"/><rect x="551" y="561" width="6" height="6" fill="#00E5FF" opacity="0.25"/><rect x="11" y="392" width="6" height="6" fill="#00E5FF" opacity="0.25"/><rect x="1049" y="132" width="6" height="6" fill="#00E5FF" opacity="0.25"/><rect x="1062" y="574" width="6" height="6" fill="#00E5FF" opacity="0.25"/><rect x="420" y="436" width="6" height="6" fill="#00E5FF" opacity="0.25"/><rect x="114" y="492" width="6" height="6" fill="#00E5FF" opacity="0.25"/><rect x="746" y="583" width="6" height="6" fill="#00E5FF" opacity="0.25"/><rect x="1135" y="204" width="6" height="6" fill="#00E5FF" opacity="0.25"/><rect x="1033" y="423" width="6" height="6" fill="#00E5FF" opacity="0.25"/><rect x="993" y="365" width="6" height="6" fill="#00E5FF" opacity="0.25"/><rect x="848" y="354" width="6" height="6" fill="#00E5FF" opacity="0.25"/><rect x="3" y="551" width="6" height="6" fill="#00E5FF" opacity="0.25"/><rect x="1106" y="638" width="6" height="6" fill="#00E5FF" opacity="0.25"/><rect x="678" y="469" width="6" height="6" fill="#00E5FF" opacity="0.25"/><rect x="57" y="235" width="6" height="6" fill="#00E5FF" opacity="0.25"/><rect x="362" y="563" width="6" height="6" fill="#00E5FF" opacity="0.25"/><rect x="370" y="93" width="6" height="6" fill="#00E5FF" opacity="0.25"/><rect x="1128" y="261" width="6" height="6" fill="#00E5FF" opacity="0.25"/><rect x="66" y="72" width="6" height="6" fill="#00E5FF" opacity="0.25"/><rect x="170" y="17" width="6" height="6" fill="#00E5FF" opacity="0.25"/><rect x="927" y="14" width="6" height="6" fill="#00E5FF" opacity="0.25"/><rect x="575" y="255" width="6" height="6" fill="#00E5FF" opacity="0.25"/><rect x="550" y="112" width="6" height="6" fill="#00E5FF" opacity="0.25"/><rect x="378" y="352" width="6" height="6" fill="#00E5FF" opacity="0.25"/><rect x="594" y="71" width="6" height="6" fill="#00E5FF" opacity="0.25"/><rect x="342" y="163" width="6" height="6" fill="#00E5FF" opacity="0.25"/><rect x="522" y="540" width="6" height="6" fill="#00E5FF" opacity="0.25"/><rect x="344" y="279" width="6" height="6" fill="#00E5FF" opacity="0.25"/><rect x="603" y="465" width="6" height="6" fill="#00E5FF" opacity="0.25"/><rect x="659" y="508" width="6" height="6" fill="#00E5FF" opacity="0.25"/><rect x="970" y="116" width="6" height="6" fill="#00E5FF" opacity="0.25"/><rect x="48" y="319" width="6" height="6" fill="#00E5FF" opacity="0.25"/><rect x="791" y="351" width="6" height="6" fill="#00E5FF" opacity="0.25"/><rect x="862" y="192" width="6" height="6" fill="#00E5FF" opacity="0.25"/><rect x="529" y="111" width="6" height="6" fill="#00E5FF" opacity="0.25"/><rect x="519" y="522" width="6" height="6" fill="#00E5FF" opacity="0.25"/><rect x="428" y="620" width="6" height="6" fill="#00E5FF" opacity="0.25"/><rect x="884" y="21" width="6" height="6" fill="#00E5FF" opacity="0.25"/><rect x="461" y="18" width="6" height="6" fill="#00E5FF" opacity="0.25"/><rect x="813" y="149" width="6" height="6" fill="#00E5FF" opacity="0.25"/><rect x="72" y="164" width="6" height="6" fill="#00E5FF" opacity="0.25"/><rect x="912" y="518" width="6" height="6" fill="#00E5FF" opacity="0.25"/><rect x="873" y="557" width="6" height="6" fill="#00E5FF" opacity="0.25"/><rect x="451" y="645" width="6" height="6" fill="#00E5FF" opacity="0.25"/><rect x="1057" y="461" width="6" height="6" fill="#00E5FF" opacity="0.25"/><rect x="457" y="536" width="6" height="6" fill="#00E5FF" opacity="0.25"/><rect x="62" y="404" width="6" height="6" fill="#00E5FF" opacity="0.25"/><rect x="1179" y="328" width="6" height="6" fill="#00E5FF" opacity="0.25"/><rect x="873" y="60" width="6" height="6" fill="#00E5FF" opacity="0.25"/><rect x="611" y="128" width="6" height="6" fill="#00E5FF" opacity="0.25"/><rect x="434" y="48" width="6" height="6" fill="#00E5FF" opacity="0.25"/><rect x="627" y="72" width="6" height="6" fill="#00E5FF" opacity="0.25"/><rect x="156" y="317" width="6" height="6" fill="#00E5FF" opacity="0.25"/><rect x="610" y="162" width="6" height="6" fill="#00E5FF" opacity="0.25"/><rect x="852" y="578" width="6" height="6" fill="#00E5FF" opacity="0.25"/>
<g stroke="url(#g)" stroke-width="3"><line x1="129" y1="560" x2="510" y2="431" stroke="#6C63FF" stroke-opacity="0.35" /><line x1="341" y1="576" x2="552" y2="451" stroke="#6C63FF" stroke-opacity="0.35" /><line x1="149" y1="350" x2="347" y2="471" stroke="#6C63FF" stroke-opacity="0.35" /><line x1="568" y1="560" x2="627" y2="363" stroke="#6C63FF" stroke-opacity="0.35" /><line x1="358" y1="256" x2="356" y2="426" stroke="#6C63FF" stroke-opacity="0.35" /><line x1="344" y1="469" x2="590" y2="567" stroke="#6C63FF" stroke-opacity="0.35" /><line x1="416" y1="554" x2="142" y2="293" stroke="#6C63FF" stroke-opacity="0.35" /><line x1="977" y1="549" x2="689" y2="552" stroke="#6C63FF" stroke-opacity="0.35" /><line x1="777" y1="131" x2="310" y2="402" stroke="#6C63FF" stroke-opacity="0.35" /><line x1="861" y1="520" x2="423" y2="141" stroke="#6C63FF" stroke-opacity="0.35" /></g>
<rect x="120" y="120" width="960" height="435" rx="24" fill="none" stroke="url(#g)" stroke-width="4" opacity="0.8"/>
<circle cx="600" cy="337" r="120" fill="url(#g)" opacity="0.15"/>
<circle cx="257" cy="371" r="9" fill="#00E5FF" opacity="0.8"/><circle cx="381" cy="140" r="15" fill="#00E5FF" opacity="0.8"/><circle cx="899" cy="310" r="15" fill="#00E5FF" opacity="0.8"/><circle cx="787" cy="274" r="11" fill="#00E5FF" opacity="0.8"/><circle cx="216" cy="329" r="8" fill="#00E5FF" opacity="0.8"/><circle cx="975" cy="279" r="14" fill="#00E5FF" opacity="0.8"/><circle cx="742" cy="470" r="8" fill="#00E5FF" opacity="0.8"/><circle cx="832" cy="308" r="12" fill="#00E5FF" opacity="0.8"/><circle cx="858" cy="490" r="11" fill="#00E5FF" opacity="0.8"/><circle cx="725" cy="563" r="9" fill="#00E5FF" opacity="0.8"/><circle cx="445" cy="95" r="8" fill="#00E5FF" opacity="0.8"/><circle cx="146" cy="412" r="16" fill="#00E5FF" opacity="0.8"/>
<path d="M220 320 C420 180,780 480,980 300" fill="none" stroke="url(#g)" stroke-width="8" opacity="0.8"/>
</svg>