<svg xmlns="http://www.w3.org/2000/svg" viewBox="0 0 1200 675">
<defs>
<linearGradient id="bg" x1="0" y1="0" x2="1" y2="1"><stop offset="0%" stop-color="#0f172a"/><stop offset="100%" stop-color="#111827"/></linearGradient>
<linearGradient id="g" x1="0" y1="0" x2="1" y2="1"><stop offset="0%" stop-color="#00E676"/><stop offset="100%" stop-color="#2979FF"/></linearGradient>
</defs>
<rect width="1200" height="675" fill="url(#bg)"/>
<rect x="173" y="240" width="6" height="6" fill="#00E676" opacity="0.25"/><rect x="618" y="208" width="6" height="6" fill="#00E676" opacity="0.25"/><rect x="1162" y="171" width="6" height="6" fill="#00E676" opacity="0.25"/><rect x="363" y="65" width="6" height="6" fill="#00E676" opacity="0.25"/><rect x="490" y="382" width="6" height="6" fill="#00E676" opacity="0.25"/><rect x="888" y="558" width="6" height="6" fill="#00E676" opacity="0.25"/><rect x="33" y="639" width="6" height="6" fill="#00E676" opacity="0.25"/><rect x="779" y="356" width="6" height="6" fill="#00E676" opacity="0.25"/><rect x="1001" y="174" width="6" height="6" fill="#00E676" opacity="0.25"/><rect x="1098" y="577" width="6" height="6" fill="#00E676" opacity="0.25"/><rect x="519" y="87" width="6" height="6" fill="#00E676" opacity="0.25"/><rect x="202" y="465" width="6" height="6" fill="#00E676" opacity="0.25"/><rect x="429" y="229" width="6" height="6" fill="#00E676" opacity="0.25"/><rect x="727" y="151" width="6" height="6" fill="#00E676" opacity="0.25"/><rect x="287" y="185" width="6" height="6" fill="#00E676" opacity="0.25"/><rect x="1106" y="655" width="6" height="6" fill="#00E676" opacity="0.25"/><rect x="175" y="485" width="6" height="6" fill="#00E676" opacity="0.25"/><rect x="566" y="286" width="6" height="6" fill="#00E676" opacity="0.25"/><rect x="604" y="2" width="6" height="6" fill="#00E676" opacity="0.25"/><rect x="1106" y="307" width="6" height="6" fill="#00E676" opacity="0.25"/><rect x="1146" y="61" width="6" height="6" fill="#00E676" opacity="0.25"/><rect x="612" y="34" width="6" height="6" fill="#00E676" opacity="0.25"/><rect x="1019" y="81" width="6" height="6" fill="#00E676" opacity="0.25"/><rect x="768" y="120" width="6" height="6" fill="#00E676" opacity="0.25"/><rect x="614" y="421" width="6" height="6" fill="#00E676" opacity="0.25"/><rect x="769" y="190" width="6" height="6" fill="#00E676" opacity="0.25"/><rect x="554" y="331" width="6" height="6" fill="#00E676" opacity="0.25"/><rect x="410" y="141" width="6" height="6" fill="#00E676" opacity="0.25"/><rect x="577" y="461" width="6" height="6" fill="#00E676" opacity="0.25"/><rect x="879" y="109" width="6" height="6" fill="#00E676" opacity="0.25"/><rect x="358" y="114" width="6" height="6" fill="#00E676" opacity="0.25"/><rect x="258" y="475" width="6" height="6" fill="#00E676" opacity="0.25"/><rect x="635" y="311" width="6" height="6" fill="#00E676" opacity="0.25"/><rect x="1123" y="460" width="6" height="6" fill="#00E676" opacity="0.25"/><rect x="65" y="586" width="6" height="6" fill="#00E676" opacity="0.25"/><rect x="351" y="393" width="6" height="6" fill="#00E676" opacity="0.25"/><rect x="162" y="55" width="6" height="6" fill="#00E676" opacity="0.25"/><rect x="669" y="250" width="6" height="6" fill="#00E676" opacity="0.25"/><rect x="1015" y="248" width="6" height="6" fill="#00E676" opacity="0.25"/><rect x="730" y="99" width="6" height="6" fill="#00E676" opacity="0.25"/><rect x="867" y="371" width="6" height="6" fill="#00E676" opacity="0.25"/><rect x="291" y="369" width="6" height="6" fill="#00E676" opacity="0.25"/><rect x="732" y="314" width="6" height="6" fill="#00E676" opacity="0.25"/><rect x="227" y="477" width="6" height="6" fill="#00E676" opacity="0.25"/><rect x="861" y="426" width="6" height="6" fill="#00E676" opacity="0.25"/><rect x="856" y="409" width="6" height="6" fill="#00E676" opacity="0.25"/><rect x="186" y="160" width="6" height="6" fill="#00E676" opacity="0.25"/><rect x="1046" y="541" width="6" height="6" fill="#00E676" opacity="0.25"/><rect x="727" y="169" width="6" height="6" fill="#00E676" opacity="0.25"/><rect x="63" y="76" width="6" height="6" fill="#00E676" opacity="0.25"/><rect x="1058" y="256" width="6" height="6" fill="#00E676" opacity="0.25"/><rect x="146" y="149" width="6" height="6" fill="#00E676" opacity="0.25"/><rect x="236" y="457" width="6" height="6" fill="#00E676" opacity="0.25"/><rect x="200" y="503" width="6" height="6" fill="#00E676" opacity="0.25"/><rect x="1100" y="543" width="6" height="6" fill="#00E676" opacity="0.25"/><rect x="1178" y="20" width="6" height="6" fill="#00E676" opacity="0.25"/><rect x="41" y="522" width="6" height="6" fill="#00E676" opacity="0.25"/><rect x="866" y="65" width="6" height="6" fill="#00E676" opacity="0.25"/><rect x="875" y="415" width="6" height="6" fill="#00E676" opacity="0.25"/><rect x="1154" y="174" width="6" height="6" fill="#00E676" opacity="0.25"/><rect x="799" y="111" width="6" height="6" fill="#00E676" opacity="0.25"/><rect x="1176" y="507" width="6" height="6" fill="#00E676" opacity="0.25"/><rect x="481" y="424" width="6" height="6" fill="#00E676" opacity="0.25"/><rect x="8" y="240" width="6" height="6" fill="#00E676" opacity="0.25"/><rect x="54" y="180" width="6" height="6" fill="#00E676" opacity="0.25"/><rect x="354" y="387" width="6" height="6" fill="#00E676" opacity="0.25"/><rect x="899" y="407" width="6" height="6" fill="#00E676" opacity="0.25"/><rect x="575" y="530" width="6" height="6" fill="#00E676" opacity="0.25"/><rect x="288" y="642" width="6" height="6" fill="#00E676" opacity="0.25"/><rect x="165" y="522" width="6" height="6" fill="#00E676" opacity="0.25"/><rect x="832" y="381" width="6" height="6" fill="#00E676" opacity="0.25"/><rect x="27" y="434" width="6" height="6" fill="#00E676" opacity="0.25"/><rect x="356" y="525" width="6" height="6" fill="#00E676" opacity="0.25"/><rect x="8" y="324" width="6" height="6" fill="#00E676" opacity="0.25"/><rect x="660" y="137" width="6" height="6" fill="#00E676" opacity="0.25"/><rect x="1048" y="194" width="6" height="6" fill="#00E676" opacity="0.25"/><rect x="219" y="508" width="6" height="6" fill="#00E676" opacity="0.25"/><rect x="173" y="388" width="6" height="6" fill="#00E676" opacity="0.25"/><rect x="474" y="85" width="6" height="6" fill="#00E676" opacity="0.25"/><rect x="609" y="150" width="6" height="6" fill="#00E676" opacity="0.25"/>
<g stroke="url(#g)" stroke-width="3"><line x1="656" y1="230" x2="308" y2="331" stroke="#2979FF" stroke-opacity="0.35" /><line x1="842" y1="383" x2="452" y2="445" stroke="#2979FF" stroke-opacity="0.35" /><line x1="682" y1="166" x2="123" y2="384" stroke="#2979FF" stroke-opacity="0.35" /><line x1="514" y1="541" x2="626" y2="150" stroke="#2979FF" stroke-opacity="0.35" /><line x1="895" y1="530" x2="342" y2="293" stroke="#2979FF" stroke-opacity="0.35" /><line x1="500" y1="491" x2="333" y2="524" stroke="#2979FF" stroke-opacity="0.35" /><line x1="626" y1="557" x2="864" y2="465" stroke="#2979FF" stroke-opacity="0.35" /><line x1="382" y1="392" x2="157" y2="200" stroke="#2979FF" stroke-opacity="0.35" /><line x1="761" y1="339" x2="593" y2="412" stroke="#2979FF" stroke-opacity="0.35" /><line x1="639" y1="231" x2="583" y2="452" stroke="#2979FF" stroke-opacity="0.35" /></g>
<rect x="120" y="120" width="960" height="435" rx="24" fill="none" stroke="url(#g)" stroke-width="4" opacity="0.8"/>
<circle cx="600" cy="337" r="120" fill="url(#g)" opacity="0.15"/>
<circle cx="456" cy="109" r="8" fill="#00E676" opacity="0.8"/><circle cx="940" cy="550" r="12" fill="#00E676" opacity="0.8"/><circle cx="1016" cy="120" r="8" fill="#00E676" opacity="0.8"/><circle cx="634" cy="401" r="10" fill="#00E676" opacity="0.8"/><circle cx="373" cy="217" r="18" fill="#00E676" opacity="0.8"/><circle cx="562" cy="266" r="16" fill="#00E676" opacity="0.8"/><circle cx="394" cy="357" r="9" fill="#00E676" opacity="0.8"/><circle cx="709" cy="288" r="15" fill="#00E676" opacity="0.8"/><circle cx="519" cy="256" r="14" fill="#00E676" opacity="0.8"/><circle cx="369" cy="280" r="10" fill="#00E676" opacity="0.8"/><circle cx="246" cy="343" r="15" fill="#00E676" opacity="0.8"/><circle cx="838" cy="471" r="11" fill="#00E676" opacity="0.8"/>
<path d="M220 330 C420 180,780 480,980 310" fill="none" stroke="url(#g)" stroke-width="8" opacity="0.8"/>
</svg>