<svg xmlns="http://www.w3.org/2000/svg" viewBox="0 0 1200 675">
<defs>
<linearGradient id="bg" x1="0" y1="0" x2="1" y2="1"><stop offset="0%" stop-color="#0f172a"/><stop offset="100%" stop-color="#111827"/></linearGradient>
<linearGradient id="g" x1="0" y1="0" x2="1" y2="1"><stop offset="0%" stop-color="#00E5FF"/><stop offset="100%" stop-color="#6C63FF"/></linearGradient>
</defs>
<rect width="1200" height="675" fill="url(#bg)"/>
<rect x="1095" y="530" width="6" height="6" fill="#00E5FF" opacity="0.25"/><rect x="853" y="34" width="6" height="6" fill="#00E5FF" opacity="0.25"/><rect x="522" y="87" width="6" height="6" fill="#00E5FF" opacity="0.25"/><rect x="252" y="314" width="6" height="6" fill="#00E5FF" opacity="0.25"/><rect x="811" y="278" width="6" height="6" fill="#00E5FF" opacity="0.25"/><rect x="315" y="500" width="6" height="6" fill="#00E5FF" opacity="0.25"/><rect x="962" y="196" width="6" height="6" fill="#00E5FF" opacity="0.25"/><rect x="568" y="545" width="6" height="6" fill="#00E5FF" opacity="0.25"/><rect x="380" y="647" width="6" height="6" fill="#00E5FF" opacity="0.25"/><rect x="822" y="221" width="6" height="6" fill="#00E5FF" opacity="0.25"/><rect x="559" y="423" width="6" height="6" fill="#00E5FF" opacity="0.25"/><rect x="993" y="431" width="6" height="6" fill="#00E5FF" opacity="0.25"/><rect x="529" y="576" width="6" height="6" fill="#00E5FF" opacity="0.25"/><rect x="132" y="545" width="6" height="6" fill="#00E5FF" opacity="0.25"/><rect x="723" y="519" width="6" height="6" fill="#00E5FF" opacity="0.25"/><rect x="1169" y="389" width="6" height="6" fill="#00E5FF" opacity="0.25"/><rect x="114" y="81" width="6" height="6" fill="#00E5FF" opacity="0.25"/><rect x="904" y="445" width="6" height="6" fill="#00E5FF" opacity="0.25"/><rect x="259" y="125" width="6" height="6" fill="#00E5FF" opacity="0.25"/><rect x="745" y="505" width="6" height="6" fill="#00E5FF" opacity="0.25"/><rect x="426" y="27" width="6" height="6" fill="#00E5FF" opacity="0.25"/><rect x="800" y="389" width="6" height="6" fill="#00E5FF" opacity="0.25"/><rect x="502" y="637" width="6" height="6" fill="#00E5FF" opacity="0.25"/><rect x="529" y="455" width="6" height="6" fill="#00E5FF" opacity="0.25"/><rect x="310" y="60" width="6" height="6" fill="#00E5FF" opacity="0.25"/><rect x="583" y="117" width="6" height="6" fill="#00E5FF" opacity="0.25"/><rect x="1120" y="514" width="6" height="6" fill="#00E5FF" opacity="0.25"/><rect x="118" y="511" width="6" height="6" fill="#00E5FF" opacity="0.25"/><rect x="919" y="600" width="6" height="6" fill="#00E5FF" opacity="0.25"/><rect x="403" y="622" width="6" height="6" fill="#00E5FF" opacity="0.25"/><rect x="1125" y="351" width="6" height="6" fill="#00E5FF" opacity="0.25"/><rect x="169" y="127" width="6" height="6" fill="#00E5FF" opacity="0.25"/><rect x="803" y="169" width="6" height="6" fill="#00E5FF" opacity="0.25"/><rect x="1138" y="65" width="6" height="6" fill="#00E5FF" opacity="0.25"/><rect x="149" y="477" width="6" height="6" fill="#00E5FF" opacity="0.25"/><rect x="280" y="551" width="6" height="6" fill="#00E5FF" opacity="0.25"/><rect x="994" y="592" width="6" height="6" fill="#00E5FF" opacity="0.25"/><rect x="1095" y="347" width="6" height="6" fill="#00E5FF" opacity="0.25"/><rect x="248" y="389" width="6" height="6" fill="#00E5FF" opacity="0.25"/><rect x="790" y="512" width="6" height="6" fill="#00E5FF" opacity="0.25"/><rect x="519" y="632" width="6" height="6" fill="#00E5FF" opacity="0.25"/><rect x="993" y="245" width="6" height="6" fill="#00E5FF" opacity="0.25"/><rect x="104" y="160" width="6" height="6" fill="#00E5FF" opacity="0.25"/><rect x="189" y="295" width="6" height="6" fill="#00E5FF" opacity="0.25"/><rect x="14" y="75" width="6" height="6" fill="#00E5FF" opacity="0.25"/><rect x="277" y="283" width="6" height="6" fill="#00E5FF" opacity="0.25"/><rect x="386" y="113" width="6" height="6" fill="#00E5FF" opacity="0.25"/><rect x="598" y="211" width="6" height="6" fill="#00E5FF" opacity="0.25"/><rect x="750" y="587" width="6" height="6" fill="#00E5FF" opacity="0.25"/><rect x="10" y="496" width="6" height="6" fill="#00E5FF" opacity="0.25"/><rect x="222" y="560" width="6" height="6" fill="#00E5FF" opacity="0.25"/><rect x="635" y="584" width="6" height="6" fill="#00E5FF" opacity="0.25"/><rect x="754" y="12" width="6" height="6" fill="#00E5FF" opacity="0.25"/><rect x="245" y="556" width="6" height="6" fill="#00E5FF" opacity="0.25"/><rect x="825" y="299" width="6" height="6" fill="#00E5FF" opacity="0.25"/><rect x="1178" y="561" width="6" height="6" fill="#00E5FF" opacity="0.25"/><rect x="639" y="397" width="6" height="6" fill="#00E5FF" opacity="0.25"/><rect x="542" y="489" width="6" height="6" fill="#00E5FF" opacity="0.25"/><rect x="802" y="11" width="6" height="6" fill="#00E5FF" opacity="0.25"/><rect x="1074" y="505" width="6" height="6" fill="#00E5FF" opacity="0.25"/><rect x="1175" y="166" width="6" height="6" fill="#00E5FF" opacity="0.25"/><rect x="84" y="154" width="6" height="6" fill="#00E5FF" opacity="0.25"/><rect x="674" y="604" width="6" height="6" fill="#00E5FF" opacity="0.25"/><rect x="431" y="469" width="6" height="6" fill="#00E5FF" opacity="0.25"/><rect x="714" y="396" width="6" height="6" fill="#00E5FF" opacity="0.25"/><rect x="670" y="313" width="6" height="6" fill="#00E5FF" opacity="0.25"/><rect x="144" y="410" width="6" height="6" fill="#00E5FF" opacity="0.25"/><rect x="110" y="142" width="6" height="6" fill="#00E5FF" opacity="0.25"/><rect x="672" y="200" width="6" height="6" fill="#00E5FF" opacity="0.25"/><rect x="716" y="371" width="6" height="6" fill="#00E5FF" opacity="0.25"/><rect x="343" y="503" width="6" height="6" fill="#00E5FF" opacity="0.25"/><rect x="900" y="303" width="6" height="6" fill="#00E5FF" opacity="0.25"/><rect x="691" y="149" width="6" height="6" fill="#00E5FF" opacity="0.25"/><rect x="849" y="278" width="6" height="6" fill="#00E5FF" opacity="0.25"/><rect x="479" y="344" width="6" height="6" fill="#00E5FF" opacity="0.25"/><rect x="294" y="100" width="6" height="6" fill="#00E5FF" opacity="0.25"/><rect x="745" y="473" width="6" height="6" fill="#00E5FF" opacity="0.25"/><rect x="762" y="501" width="6" height="6" fill="#00E5FF" opacity="0.25"/><rect x="35" y="175" width="6" height="6" fill="#00E5FF" opacity="0.25"/><rect x="520" y="24" width="6" height="6" fill="#00E5FF" opacity="0.25"/>
<g stroke="url(#g)" stroke-width="3"><line x1="893" y1="555" x2="862" y2="337" stroke="#6C63FF" stroke-opacity="0.35" /><line x1="956" y1="186" x2="225" y2="130" stroke="#6C63FF" stroke-opacity="0.35" /><line x1="516" y1="535" x2="756" y2="453" stroke="#6C63FF" stroke-opacity="0.35" /><line x1="186" y1="214" x2="1013" y2="489" stroke="#6C63FF" stroke-opacity="0.35" /><line x1="860" y1="390" x2="501" y2="535" stroke="#6C63FF" stroke-opacity="0.35" /><line x1="161" y1="112" x2="216" y2="191" stroke="#6C63FF" stroke-opacity="0.35" /><line x1="151" y1="154" x2="375" y2="538" stroke="#6C63FF" stroke-opacity="0.35" /><line x1="370" y1="220" x2="274" y2="540" stroke="#6C63FF" stroke-opacity="0.35" /><line x1="610" y1="400" x2="942" y2="121" stroke="#6C63FF" stroke-opacity="0.35" /><line x1="838" y1="248" x2="768" y2="214" stroke="#6C63FF" stroke-opacity="0.35" /></g>
<rect x="120" y="120" width="960" height="435" rx="24" fill="none" stroke="url(#g)" stroke-width="4" opacity="0.8"/>
<circle cx="600" cy="337" r="120" fill="url(#g)" opacity="0.15"/>
<circle cx="820" cy="99" r="9" fill="#00E5FF" opacity="0.8"/><circle cx="940" cy="165" r="9" fill="#00E5FF" opacity="0.8"/><circle cx="739" cy="256" r="13" fill="#00E5FF" opacity="0.8"/><circle cx="1014" cy="483" r="16" fill="#00E5FF" opacity="0.8"/><circle cx="544" cy="317" r="14" fill="#00E5FF" opacity="0.8"/><circle cx="700" cy="304" r="16" fill="#00E5FF" opacity="0.8"/><circle cx="448" cy="366" r="16" fill="#00E5FF" opacity="0.8"/><circle cx="948" cy="305" r="10" fill="#00E5FF" opacity="0.8"/><circle cx="542" cy="280" r="9" fill="#00E5FF" opacity="0.8"/><circle cx="544" cy="226" r="10" fill="#00E5FF" opacity="0.8"/><circle cx="320" cy="152" r="12" fill="#00E5FF" opacity="0.8"/><circle cx="336" cy="435" r="18" fill="#00E5FF" opacity="0.8"/>
<path d="M220 338 C420 180,780 480,980 318" fill="none" stroke="url(#g)" stroke-width="8" opacity="0.8"/>
</svg>